<?xml version="1.0" standalone="no"?>
<!DOCTYPE svg PUBLIC "-//W3C//DTD SVG 20010904//EN"
 "http://www.w3.org/TR/2001/REC-SVG-20010904/DTD/svg10.dtd">
<svg version="1.0" xmlns="http://www.w3.org/2000/svg"
 width="1152.000000pt" height="768.000000pt" viewBox="0 0 1152.000000 768.000000"
 preserveAspectRatio="xMidYMid meet">

<g transform="translate(0.000000,768.000000) scale(0.100000,-0.100000)"
fill="#000000" stroke="none">
<path d="M0 4950 c0 -1502 4 -2730 9 -2730 4 0 23 11 42 24 134 95 644 431
714 470 17 9 59 35 95 57 95 60 342 205 429 251 42 23 101 55 131 73 251 147
1035 540 1280 643 19 8 128 56 242 108 114 52 210 94 214 94 6 0 102 41 209
89 33 15 91 40 128 56 38 16 72 36 76 44 10 19 4 72 -34 332 -27 185 -28 198
-12 222 11 17 29 27 57 32 l40 7 0 71 c0 62 5 79 30 122 33 56 36 65 18 65
-24 0 -87 66 -107 111 -26 57 -28 125 -3 138 14 8 22 4 37 -20 27 -41 50 -53
76 -38 40 21 55 -37 17 -64 l-23 -16 25 -20 25 -20 23 29 c21 27 30 30 80 31
31 0 65 3 74 7 16 7 16 10 -2 47 -11 22 -25 47 -31 56 -16 22 -5 57 31 99 30
34 30 35 46 15 9 -12 13 -33 11 -55 -4 -29 1 -39 27 -62 29 -24 30 -29 20 -57
-13 -32 -9 -41 16 -41 17 0 50 58 50 88 0 10 -7 27 -15 38 -8 10 -15 30 -15
45 0 26 44 104 72 127 12 9 14 22 8 53 -10 54 4 223 23 275 8 22 27 64 41 92
14 28 26 62 26 75 0 14 -21 70 -47 127 -46 98 -48 101 -75 96 -33 -6 -33 -5
-13 35 15 28 14 32 -26 110 -36 69 -45 80 -63 75 -35 -10 -106 -19 -106 -13 0
3 22 19 50 37 27 18 50 34 50 36 0 2 -9 27 -21 56 -12 29 -39 105 -61 168 -37
105 -41 125 -43 231 -3 115 -3 117 22 128 17 8 23 16 18 30 -5 16 0 18 49 16
68 -3 99 -21 346 -205 102 -75 243 -177 313 -225 70 -49 139 -101 153 -118
l24 -29 65 37 c61 34 71 46 66 85 -1 8 -5 44 -9 80 l-7 65 -50 -3 c-65 -4
-100 10 -120 48 -19 37 -11 54 24 46 14 -3 46 -9 71 -14 25 -5 52 -12 62 -16
9 -4 37 0 63 8 33 12 65 15 108 10 l62 -6 100 87 c191 164 364 279 596 396
381 190 752 290 1193 320 323 21 711 -35 1012 -146 100 -38 375 -164 384 -177
3 -4 32 -19 64 -33 49 -22 60 -24 70 -12 14 18 100 47 138 47 16 0 38 4 48 10
28 15 284 29 367 19 29 -3 32 -6 26 -28 -5 -22 -4 -23 23 -17 16 4 34 14 40
22 14 18 25 18 18 0 -3 -9 3 -17 15 -21 16 -5 34 5 73 39 54 48 74 57 64 31
-4 -12 0 -14 17 -10 31 7 239 40 372 59 22 3 51 8 65 10 14 3 84 13 155 22 72
9 141 18 155 20 14 2 81 8 150 14 69 5 143 12 165 15 22 2 96 9 165 15 69 5
152 13 185 15 142 12 433 24 588 25 l167 0 0 75 0 75 -5760 0 -5760 0 0 -2730z
m3220 2456 c0 -15 -24 -28 -34 -19 -13 14 -5 33 14 33 11 0 20 -6 20 -14z
m5990 -70 c0 -3 -4 -8 -10 -11 -5 -3 -10 -1 -10 4 0 6 5 11 10 11 6 0 10 -2
10 -4z m-6376 -137 c-3 -5 -10 -7 -15 -3 -5 3 -7 10 -3 15 3 5 10 7 15 3 5 -3
7 -10 3 -15z m1741 -350 c4 -6 5 -12 2 -15 -7 -7 -37 7 -37 17 0 13 27 11 35
-2z m285 -273 c0 -16 -24 -38 -33 -30 -8 9 11 44 23 44 6 0 10 -6 10 -14z
m-3658 -601 c33 -30 42 -57 34 -99 -9 -48 -45 -77 -95 -78 -46 0 -81 24 -107
74 -22 42 -17 63 21 97 47 41 107 43 147 6z m793 -84 c7 -12 -12 -24 -25 -16
-11 7 -4 25 10 25 5 0 11 -4 15 -9z m345 -281 c0 -5 -4 -10 -10 -10 -5 0 -10
5 -10 10 0 6 5 10 10 10 6 0 10 -4 10 -10z m1570 -215 c0 -8 -4 -15 -10 -15
-5 0 -10 7 -10 15 0 8 5 15 10 15 6 0 10 -7 10 -15z m-3489 -101 c9 -11 10
-20 2 -32 -13 -22 -43 -22 -56 -1 -24 38 25 68 54 33z m3404 -63 c-10 -16 -25
-3 -25 22 0 20 1 20 16 5 9 -9 13 -21 9 -27z m-425 -223 c0 -18 -5 -28 -15
-28 -10 0 -15 10 -15 33 0 19 3 37 7 40 10 11 23 -14 23 -45z m-2490 -104 c11
-13 10 -19 -8 -37 l-22 -21 -22 21 c-18 18 -19 24 -8 37 7 9 20 16 30 16 10 0
23 -7 30 -16z m-432 -402 c4 -28 -24 -40 -45 -19 -14 13 -14 19 -3 32 18 22
44 15 48 -13z"/>
<path d="M9125 7232 c-27 -9 -49 -23 -48 -29 2 -7 -3 -10 -10 -8 -25 10 -133
-95 -257 -250 -35 -44 -72 -89 -82 -100 -9 -11 -45 -56 -79 -100 -35 -44 -81
-100 -103 -125 -81 -90 -281 -292 -299 -302 -34 -18 1 32 82 118 149 158 286
324 267 324 -10 0 -234 -115 -260 -134 -49 -36 -174 -196 -191 -244 -8 -25
-15 -62 -15 -81 l0 -36 -77 3 c-72 3 -82 1 -125 -27 -54 -35 -72 -83 -45 -124
30 -45 213 -224 234 -229 17 -4 31 5 65 46 25 28 53 63 63 79 17 27 17 28 -8
65 -30 42 -49 90 -42 101 5 9 90 -3 139 -19 44 -14 317 -303 352 -373 21 -41
54 -77 70 -77 29 0 63 -24 82 -59 13 -23 26 -80 37 -156 9 -66 19 -134 21
-152 3 -19 11 -33 22 -35 18 -5 66 7 96 23 14 8 16 8 10 -3 -6 -10 -5 -10 7
-2 8 6 37 14 64 17 47 5 87 13 93 17 1 2 6 3 11 4 5 0 13 4 17 9 4 4 14 7 21
7 22 0 40 23 69 86 29 64 32 107 23 313 -5 93 -7 105 -28 122 -13 11 -19 19
-13 19 5 0 13 30 17 68 4 37 24 141 45 232 48 204 65 369 57 538 -10 214 -51
374 -117 462 -23 31 -97 36 -165 12z m98 -136 c30 -14 19 -29 -17 -22 -18 4
-44 2 -57 -4 -20 -8 -18 -9 14 -4 26 4 37 3 37 -6 0 -7 8 -19 18 -27 15 -12 9
-13 -48 -12 -36 1 -69 0 -75 -1 -16 -3 28 -19 55 -19 28 -1 62 -41 35 -41 -8
0 -15 -4 -15 -10 0 -5 -4 -10 -10 -10 -5 0 -7 7 -4 15 4 10 0 15 -16 15 -11 0
-18 -4 -15 -10 3 -5 -2 -10 -11 -10 -26 0 -8 -13 22 -16 34 -4 42 -13 24 -24
-8 -6 -10 -10 -4 -10 7 0 19 -11 28 -25 l17 -25 -43 6 -42 7 22 -28 c24 -31
20 -49 -9 -40 -29 10 -23 -2 26 -52 48 -48 64 -84 18 -41 -30 28 -130 78 -156
78 -8 0 -17 -5 -19 -11 -2 -7 -13 -7 -33 1 -17 7 -48 13 -70 13 -22 1 -39 7
-37 12 2 6 22 9 45 8 l42 -2 -31 13 c-33 15 -50 41 -33 52 6 3 34 3 62 0 29
-3 59 -2 67 4 12 8 9 10 -12 10 -15 0 -30 5 -34 11 -3 6 -17 8 -31 5 -30 -8
-44 0 -36 20 4 11 22 14 80 13 40 -1 76 1 80 5 3 3 -10 6 -30 6 -20 0 -39 5
-42 10 -3 6 -15 10 -26 10 -10 0 -19 6 -19 13 0 9 24 20 63 29 l62 16 -30 12
c-28 11 -28 13 -10 20 11 5 30 9 43 9 24 1 30 16 10 24 -7 3 4 6 24 6 20 1 39
5 42 10 7 10 52 8 79 -3z m-251 -354 c18 -10 43 -21 56 -25 19 -4 21 -3 11 9
-9 11 -8 14 3 14 17 0 72 -40 65 -47 -3 -2 22 -29 54 -60 70 -66 71 -83 2 -26
-54 45 -147 97 -124 69 12 -14 11 -16 -3 -16 -9 0 -16 -5 -16 -12 0 -12 94
-108 107 -108 4 -1 35 -25 68 -55 l60 -54 -38 6 c-38 6 -47 -3 -25 -25 18 -18
4 -24 -26 -12 -35 13 -59 13 -51 0 16 -26 -28 -6 -67 31 -23 22 -63 51 -88 63
-55 28 -190 72 -247 81 -24 4 -43 11 -43 16 0 14 78 11 138 -5 28 -8 52 -12
52 -10 0 3 10 0 23 -6 21 -11 21 -10 3 4 -11 9 -28 16 -38 16 -10 0 -18 5 -18
11 0 8 13 9 38 4 35 -6 36 -6 17 9 -11 8 -29 16 -39 16 -15 0 -17 3 -8 12 9 9
19 8 44 -4 30 -14 100 -39 153 -55 42 -13 -4 24 -53 42 -26 10 -51 22 -56 26
-6 5 -23 9 -38 9 -15 0 -28 5 -28 10 0 6 -8 10 -17 10 -16 1 -16 2 -2 10 10 6
29 6 50 0 42 -12 49 -12 49 -1 0 5 -18 16 -39 24 -53 22 -57 33 -10 29 24 -3
39 0 39 7 0 15 4 14 42 -7z m-179 -39 c-7 -2 -19 -2 -25 0 -7 3 -2 5 12 5 14
0 19 -2 13 -5z m-28 -33 c3 -5 -1 -10 -9 -10 -9 0 -16 5 -16 10 0 6 4 10 9 10
6 0 13 -4 16 -10z m-125 -80 c0 -5 -5 -10 -11 -10 -5 0 -7 5 -4 10 3 6 8 10
11 10 2 0 4 -4 4 -10z m182 -125 c35 -10 70 -19 78 -23 8 -3 24 -4 35 -3 11 2
17 0 13 -4 -14 -14 -136 -14 -148 0 -6 7 -44 16 -90 20 -44 4 -82 10 -85 15
-9 14 136 11 197 -5z m184 -53 c-10 -2 -22 0 -28 6 -6 6 0 7 19 4 21 -5 23 -7
9 -10z m-294 -16 c15 1 29 -5 32 -12 3 -8 12 -14 21 -14 8 0 15 -4 15 -10 0
-5 -5 -10 -11 -10 -5 0 -7 -5 -3 -11 4 -6 20 -8 39 -5 24 5 34 2 39 -9 3 -8
16 -15 28 -15 13 0 37 -9 55 -19 17 -11 51 -25 74 -31 48 -13 112 -53 102 -63
-3 -4 -21 -7 -40 -7 -35 0 -45 -15 -15 -24 9 -3 -7 -2 -36 1 -83 8 -109 10
-222 17 -145 10 -148 11 -143 40 5 22 0 26 -38 37 -41 11 -43 12 -21 22 32 15
22 31 -24 38 -58 8 -23 18 77 21 47 2 86 8 88 13 1 6 -28 17 -66 26 -43 10
-61 18 -48 21 11 3 31 3 45 -1 14 -3 37 -5 52 -5z m245 -82 c-3 -3 -12 -4 -19
-1 -8 3 -5 6 6 6 11 1 17 -2 13 -5z m-797 -179 c0 -8 -9 -15 -20 -15 -20 0
-26 11 -13 23 12 13 33 7 33 -8z m-39 -52 c18 -26 41 -55 51 -65 17 -17 17
-18 -13 -18 -41 0 -107 38 -124 70 -18 36 -9 48 46 59 3 0 21 -20 40 -46z"/>
<path d="M9010 6989 c0 -11 25 -22 39 -17 6 1 -1 8 -14 15 -14 6 -25 7 -25 2z"/>
<path d="M9035 6810 c3 -5 13 -10 21 -10 8 0 12 5 9 10 -3 6 -13 10 -21 10 -8
0 -12 -4 -9 -10z"/>
<path d="M9065 6700 c3 -5 11 -10 16 -10 6 0 7 5 4 10 -3 6 -11 10 -16 10 -6
0 -7 -4 -4 -10z"/>
<path d="M8609 7015 c-84 -17 -183 -62 -267 -122 -144 -103 -337 -298 -432
-438 l-34 -50 49 40 c27 22 61 52 76 66 14 15 36 30 48 34 12 3 19 11 16 16
-4 5 -2 9 4 9 5 0 43 32 82 70 40 39 74 70 76 70 2 0 16 13 31 29 15 16 52 48
82 70 30 23 67 51 83 63 15 13 31 23 35 24 4 0 30 11 57 24 105 48 143 56 175
33 15 -11 20 -12 15 -3 -5 9 -4 11 4 6 7 -4 9 -17 6 -29 -5 -20 -3 -19 19 6
33 36 33 40 -5 71 -34 29 -30 29 -120 11z"/>
<path d="M11466 6558 c-9 -5 -13 -15 -10 -21 4 -7 4 -9 0 -5 -7 6 -31 -3 -127
-44 -39 -17 -54 -46 -36 -66 8 -10 17 -22 21 -29 10 -18 -35 -60 -89 -83 -26
-11 -45 -23 -41 -27 3 -4 -4 -17 -16 -30 -17 -19 -18 -23 -6 -23 9 0 30 -14
47 -31 17 -16 39 -30 48 -30 151 5 190 2 226 -19 l37 -22 0 215 c0 201 -1 215
-19 220 -10 2 -26 0 -35 -5z"/>
<path d="M5720 6373 c-494 -26 -845 -126 -1121 -319 -112 -78 -169 -134 -229
-220 -52 -76 -219 -414 -220 -445 0 -9 -9 -51 -20 -94 -24 -95 -24 -92 0 -98
30 -8 45 12 75 98 31 90 69 170 86 180 8 5 8 2 1 -11 -14 -27 -62 -201 -62
-225 0 -11 10 -23 23 -28 43 -17 51 -37 39 -91 -8 -34 -8 -58 -2 -76 15 -39
12 -62 -10 -74 -16 -9 -26 -7 -49 9 -27 19 -29 20 -43 3 -29 -33 -61 -105 -82
-182 -12 -45 -36 -216 -36 -260 0 -5 -4 -10 -10 -10 -6 0 -10 65 -11 173 -1
160 -2 169 -14 129 -51 -160 -42 -570 15 -717 11 -28 12 -29 25 -11 8 10 18
15 24 12 11 -7 41 -104 41 -136 0 -12 10 -30 22 -39 15 -12 18 -20 10 -25 -7
-4 -12 -2 -12 3 0 6 -4 11 -10 11 -12 0 -5 -21 30 -90 41 -80 47 -123 21 -147
l-22 -20 25 -17 c14 -9 29 -30 34 -48 13 -53 32 -57 120 -24 42 16 140 50 217
77 77 26 131 48 119 48 -28 1 -36 11 -22 28 9 11 6 21 -12 45 -27 36 -21 52
29 82 29 17 39 17 84 7 65 -14 126 2 157 42 17 22 29 27 65 27 50 0 109 25 78
33 -16 4 -16 6 5 12 38 12 24 25 -27 25 -26 0 -63 5 -81 11 -25 9 -45 9 -87
-2 -50 -11 -59 -11 -85 4 -16 9 -34 17 -39 17 -15 0 -99 -81 -99 -96 0 -25
-37 -26 -65 0 -20 18 -27 36 -30 73 -2 26 -8 62 -14 79 -9 33 -6 44 32 97 10
14 29 79 43 144 13 65 26 125 28 133 3 8 11 45 19 81 18 85 45 119 142 184 44
29 88 67 98 84 15 25 25 31 44 29 29 -3 37 -14 54 -80 13 -45 14 -47 32 -31
15 14 20 15 26 4 14 -23 1 -53 -21 -48 -17 5 -19 2 -13 -21 23 -96 183 -192
295 -177 86 11 150 35 188 69 l37 34 -1 -64 c-1 -53 1 -64 14 -59 10 4 12 0 8
-11 -3 -8 -6 -18 -6 -20 0 -2 -7 -4 -16 -4 -12 0 -15 -6 -11 -21 3 -12 3 -18
0 -15 -4 3 -13 -3 -21 -15 -8 -11 -12 -23 -9 -26 4 -3 -12 -21 -33 -41 -22
-19 -40 -40 -40 -47 0 -6 -8 -20 -18 -31 -9 -10 -17 -26 -17 -34 0 -19 -39
-70 -54 -70 -6 0 -8 -7 -5 -15 4 -8 1 -15 -5 -15 -6 0 -11 -6 -11 -13 0 -7
-22 -34 -50 -59 -27 -25 -50 -51 -50 -57 0 -6 -7 -8 -15 -5 -10 4 -15 0 -15
-15 0 -14 -6 -21 -20 -21 -22 0 -27 -16 -7 -23 9 -3 9 -7 -2 -21 -13 -15 -10
-16 25 -11 54 8 66 13 59 25 -4 6 -3 10 2 9 24 -4 53 2 48 11 -3 5 5 21 19 34
14 13 26 26 26 29 0 3 14 21 30 39 17 18 30 37 30 44 0 6 11 17 25 24 13 7 22
17 19 22 -3 4 2 8 11 8 8 0 18 7 21 15 4 8 9 13 13 11 4 -3 13 10 21 27 7 17
15 26 18 19 2 -7 -2 -20 -10 -29 -9 -12 -9 -15 0 -9 11 6 17 -5 13 -26 0 -5 9
-18 21 -30 19 -19 19 -22 5 -27 -13 -5 -12 -8 8 -18 22 -10 25 -9 25 9 0 10 5
29 12 41 15 27 18 57 6 57 -5 0 -6 5 -3 10 4 6 10 8 15 5 12 -7 22 29 14 50
-5 12 -4 16 4 11 6 -3 13 -2 16 3 4 5 -2 8 -11 6 -10 -2 -21 -4 -25 -4 -5 -1
-8 -12 -8 -26 l0 -25 -21 21 c-13 13 -18 27 -14 42 8 26 32 85 45 109 6 10 10
27 10 39 0 17 -3 19 -14 10 -23 -19 -27 0 -32 152 -5 158 -14 201 -51 260 -31
50 -110 127 -130 127 -7 0 -16 6 -19 14 -3 8 -20 14 -42 14 -20 0 -66 1 -102
1 -130 2 -260 -43 -302 -104 -16 -24 -35 -37 -64 -44 -41 -11 -132 -60 -214
-117 -47 -33 -89 -74 -75 -74 4 0 -1 -12 -10 -27 -17 -25 -23 -102 -10 -123 3
-5 1 -12 -5 -15 -6 -4 -10 -14 -9 -23 3 -34 -1 -42 -22 -42 -20 0 -21 4 -17
62 3 35 -1 81 -8 104 -24 82 16 261 72 317 14 14 39 29 55 32 16 4 31 11 34
16 4 5 28 9 54 9 62 0 103 19 95 43 -4 12 3 28 16 42 17 18 20 30 16 53 -5 20
-2 33 9 42 8 7 15 22 15 34 0 12 9 27 20 34 11 7 20 18 20 25 0 7 15 27 33 45
24 23 42 32 66 32 30 0 33 -2 29 -25 -3 -14 -1 -28 4 -31 5 -3 7 -12 4 -20 -8
-21 4 -44 23 -44 10 0 21 -3 24 -7 4 -3 21 -8 39 -10 17 -2 39 -10 48 -18 9
-8 22 -15 28 -15 7 0 12 -4 12 -10 0 -5 5 -10 11 -10 5 0 7 5 4 10 -3 6 -2 10
3 10 5 0 8 10 7 23 -1 14 -13 27 -35 38 -32 15 -32 16 -10 22 20 5 21 8 10 21
-10 13 -10 16 1 16 8 0 5 6 -7 15 -11 8 -14 15 -6 15 6 0 12 4 12 9 0 5 -26
15 -57 21 -32 7 -69 16 -83 20 -23 8 -22 8 10 9 19 0 55 -4 80 -10 24 -5 56
-7 70 -4 24 7 24 8 -29 56 -30 27 -52 49 -49 49 4 0 33 -13 64 -30 32 -16 59
-28 62 -26 2 2 -4 18 -13 36 -9 17 -15 41 -13 53 3 20 7 18 46 -22 23 -24 42
-41 42 -37 0 4 -13 34 -30 67 -28 56 -28 59 -7 48 12 -7 32 -23 45 -37 13 -13
25 -22 28 -19 6 6 -19 96 -36 127 -6 12 -9 24 -6 27 4 4 74 -123 83 -152 11
-37 19 -107 11 -111 -4 -3 -5 -17 -2 -31 4 -16 2 -28 -6 -33 -17 -11 -18 -197
-1 -237 14 -34 71 -77 85 -63 5 5 8 33 7 62 -8 172 -5 201 24 266 16 34 32 62
37 62 4 0 8 14 8 30 0 17 5 30 11 30 13 0 4 51 -16 93 -7 15 -10 27 -6 27 5 0
16 20 26 44 24 58 64 57 65 -2 0 -12 6 -25 14 -28 14 -6 29 -113 31 -224 2
-127 6 -170 14 -170 13 0 51 81 51 108 0 12 4 22 10 22 12 0 6 196 -8 231 -6
15 -8 45 -5 67 4 29 1 49 -11 66 -20 31 -21 66 -2 92 14 18 15 18 25 -8 6 -16
14 -28 19 -28 5 0 15 -24 22 -53 9 -40 10 -59 1 -75 -14 -26 -14 -62 -1 -62
17 0 12 -142 -6 -168 -10 -14 -14 -32 -10 -48 4 -13 3 -24 -2 -24 -5 0 -8 -8
-8 -17 0 -10 -3 -59 -8 -110 -6 -64 -13 -93 -23 -97 -10 -4 -11 -10 -3 -25 14
-27 13 -36 -3 -22 -8 6 -18 7 -22 3 -5 -4 -4 0 1 8 5 8 7 22 6 31 -2 9 4 19
13 22 8 4 15 11 15 17 0 6 -4 9 -9 6 -5 -4 -7 4 -5 16 2 13 -7 -1 -21 -30 -14
-30 -23 -57 -20 -62 3 -4 -2 -13 -10 -20 -12 -10 -13 -7 -5 19 5 17 7 31 4 31
-2 0 5 17 16 37 11 21 20 42 20 48 -1 5 -10 -8 -21 -30 -10 -22 -24 -44 -31
-50 -8 -7 -9 -6 -4 3 11 18 -5 15 -21 -5 -14 -17 -14 -17 -8 1 6 19 5 19 -14
2 -18 -17 -19 -17 -23 1 -4 17 -5 16 -15 -3 -15 -26 -3 -79 18 -79 8 0 13 -8
11 -19 -2 -10 1 -15 6 -12 10 6 37 -51 62 -133 18 -59 27 -57 55 15 13 33 13
36 1 20 -14 -17 -16 -17 -31 -3 -9 10 -11 18 -5 22 5 3 10 1 10 -5 0 -6 5 -8
10 -5 6 3 7 18 4 32 -5 20 -4 24 6 18 8 -5 11 -4 7 2 -3 5 -1 27 5 49 11 37
12 38 18 14 4 -14 3 -29 -2 -35 -4 -5 -8 -18 -7 -30 0 -14 2 -16 6 -5 3 8 12
19 19 23 8 4 14 21 14 36 0 17 5 28 14 28 10 0 13 -9 9 -34 -5 -28 -2 -34 17
-41 16 -6 19 -11 12 -16 -15 -9 -16 -56 0 -56 6 0 4 -8 -6 -19 -11 -12 -14
-21 -7 -26 6 -3 11 1 11 10 0 9 5 13 10 10 6 -4 8 -10 5 -15 -3 -5 2 -16 11
-24 13 -14 13 -16 0 -16 -11 0 -13 -7 -8 -27 4 -16 7 -40 6 -54 -1 -22 3 -25
19 -21 18 5 18 6 4 17 -16 12 -11 28 10 32 7 2 10 -4 7 -12 -4 -8 -2 -15 4
-15 5 0 7 -12 4 -26 -3 -20 0 -26 17 -31 11 -3 18 -10 15 -15 -3 -5 -13 -7
-21 -4 -8 3 -12 2 -9 -3 3 -5 -1 -11 -9 -15 -21 -8 -29 12 -13 31 9 12 9 15 1
9 -8 -4 -13 -2 -13 4 0 6 -5 8 -11 4 -6 -3 -9 -17 -6 -30 2 -13 1 -24 -3 -24
-4 0 -11 -16 -14 -35 -4 -19 -12 -35 -17 -35 -6 0 -9 -6 -6 -12 2 -7 -3 -18
-12 -25 -15 -11 -14 -12 1 -13 9 0 20 5 23 10 3 6 13 10 22 10 13 0 14 -2 2
-17 -13 -16 -12 -17 3 -5 9 8 23 10 29 6 7 -4 9 -3 6 3 -6 10 12 23 41 29 10
2 11 -1 1 -12 -6 -8 -8 -14 -3 -14 5 0 2 -5 -6 -10 -13 -8 -12 -10 3 -10 9 0
17 -5 17 -11 0 -5 3 -8 8 -6 4 3 23 -3 42 -14 19 -10 30 -18 25 -19 -6 0 -16
-9 -23 -20 -7 -11 -9 -19 -5 -18 5 2 9 -1 10 -5 1 -4 9 -15 18 -23 17 -18 11
-36 -9 -28 -8 3 -17 0 -21 -5 -3 -6 -11 -8 -17 -5 -7 5 -8 2 -2 -7 15 -24 13
-41 -8 -70 -13 -17 -26 -25 -36 -21 -11 4 -14 1 -10 -9 4 -10 -1 -15 -13 -15
-11 0 -19 5 -19 10 0 5 -3 7 -6 4 -3 -3 0 -15 7 -26 11 -17 11 -25 0 -46 -8
-13 -11 -34 -8 -45 11 -44 -49 -81 -81 -49 -7 7 -12 8 -12 2 0 -5 -30 -10 -67
-11 -48 -1 -71 -6 -79 -18 -7 -9 -18 -13 -28 -9 -11 4 -16 1 -16 -10 0 -9 -7
-16 -16 -16 -8 0 -12 4 -9 10 3 5 0 7 -9 4 -9 -3 -17 2 -21 15 -3 12 -12 21
-20 21 -19 0 -7 -38 15 -45 10 -3 39 -29 66 -58 27 -29 64 -63 82 -77 18 -13
49 -51 69 -84 19 -33 43 -71 54 -84 19 -25 18 -66 -4 -87 -7 -7 -8 -6 -3 3 17
29 -4 9 -25 -24 -12 -20 -25 -31 -28 -25 -4 6 -7 -9 -7 -33 0 -30 4 -42 12
-39 15 5 26 32 19 43 -3 4 2 10 10 14 8 3 15 0 15 -7 0 -20 -40 -78 -49 -72
-5 3 -22 -18 -36 -47 -15 -29 -33 -64 -41 -78 -13 -24 -13 -25 28 -33 28 -6
48 -5 64 4 18 9 27 9 38 0 7 -6 20 -10 27 -9 8 2 13 -3 11 -10 -2 -10 2 -10
16 -3 17 9 18 7 14 -16 -4 -21 -2 -25 11 -20 9 3 18 3 20 -1 2 -4 3 -2 2 3 -1
6 1 19 6 30 6 17 8 17 8 2 1 -9 6 -16 12 -15 11 3 23 -14 33 -46 6 -17 8 -16
26 5 11 13 19 18 20 12 0 -7 5 -13 11 -13 6 0 8 7 5 16 -3 8 -2 12 4 9 6 -3
10 -11 10 -16 0 -14 26 -39 41 -39 7 0 5 8 -7 22 l-19 22 26 -16 c33 -21 44
-12 23 20 -8 13 -13 26 -10 30 3 3 6 0 6 -7 0 -7 5 -9 12 -5 6 4 8 3 5 -3 -8
-12 20 -26 34 -17 6 3 16 0 24 -6 8 -6 25 -10 38 -8 13 1 30 -2 38 -8 8 -6 29
-16 46 -24 28 -11 36 -10 58 4 13 9 36 16 50 16 14 0 25 5 25 10 0 6 18 10 39
10 30 0 44 6 55 22 9 12 16 20 16 16 0 -3 16 -2 35 2 24 5 35 4 35 -4 0 -7 4
-6 9 3 5 7 6 22 4 32 -3 10 -1 19 3 19 27 -1 45 -38 63 -128 16 -77 12 -97 -5
-27 -8 33 -19 64 -25 70 -8 7 -9 3 -4 -12 8 -27 2 -29 -19 -7 -9 9 -16 11 -16
4 0 -6 -4 -8 -10 -5 -5 3 -10 -1 -10 -10 0 -9 -6 -15 -12 -14 -31 4 -40 -2
-35 -20 9 -37 -65 -82 -158 -96 -27 -4 -54 -10 -60 -15 -10 -7 -72 -17 -165
-26 -25 -2 -90 -5 -145 -5 -83 0 -113 4 -175 26 -41 14 -90 30 -108 34 -18 5
-43 16 -57 25 -13 9 -31 16 -39 16 -8 0 -16 5 -18 11 -2 6 -22 12 -43 13 -30
1 -46 8 -62 27 -13 15 -33 27 -45 26 -13 0 -31 3 -40 7 -22 10 -25 -4 -43
-161 l-14 -118 4 170 c2 102 0 162 -5 150 -5 -11 -9 -33 -10 -50 -2 -29 -2
-29 -10 -5 -7 24 -7 23 -15 -12 -4 -21 -10 -61 -14 -90 l-7 -53 -7 45 c-4 25
-3 60 3 79 5 19 8 37 5 39 -3 4 -28 -72 -54 -168 l-9 -35 -1 30 c0 17 11 75
25 130 14 55 27 114 30 130 3 29 3 29 -12 10 -15 -19 -105 -169 -138 -230 -30
-54 -8 12 31 95 41 88 55 130 43 130 -5 0 -12 -5 -15 -10 -4 -6 -10 -8 -15 -5
-12 7 -61 -35 -54 -47 4 -6 3 -8 -3 -5 -19 12 -162 -150 -246 -278 -49 -74
-112 -208 -80 -168 11 13 32 23 53 25 34 3 35 2 38 -32 3 -32 10 -40 60 -70
31 -19 73 -35 92 -36 19 -1 74 -16 122 -33 215 -76 654 -112 1091 -91 222 11
271 10 256 -4 -8 -9 -204 -45 -324 -61 -66 -8 -221 -18 -345 -22 l-225 -8 130
-7 c134 -8 278 -4 425 12 149 16 218 19 185 10 -25 -8 -22 -9 19 -6 87 7 25
-11 -99 -28 -393 -53 -791 -46 -1115 20 -181 37 -409 131 -493 203 -23 20 -61
51 -84 69 -23 18 -45 41 -48 51 -3 11 -13 22 -23 25 -9 3 -23 9 -30 12 -25 12
5 -32 61 -87 139 -138 332 -228 642 -299 311 -71 537 -90 833 -72 742 46 1260
223 1867 636 77 52 141 93 143 91 7 -7 -29 -52 -52 -64 -31 -17 -53 -61 -30
-61 8 0 13 -4 9 -9 -3 -6 2 -14 12 -19 15 -9 13 -13 -15 -41 -17 -18 -32 -34
-32 -36 -2 -16 -129 -120 -157 -129 -11 -4 -26 -13 -33 -21 -6 -8 -19 -11 -27
-8 -11 4 -14 2 -9 -5 4 -7 2 -10 -6 -7 -8 3 -25 -6 -38 -20 -18 -19 -26 -22
-32 -13 -6 10 -8 9 -8 -3 0 -10 -16 -23 -40 -33 -53 -21 -57 -20 -29 4 l24 20
-28 -10 c-42 -15 -56 -13 -50 8 2 10 11 19 19 19 16 0 19 -13 4 -20 -6 -3 -5
-4 2 -3 7 1 14 18 14 38 2 35 1 36 -35 29 -2 -1 2 -7 8 -15 10 -11 9 -14 -1
-12 -7 1 -19 5 -27 10 -9 6 -17 3 -23 -8 -5 -9 -13 -14 -18 -11 -9 5 -52 -11
-120 -45 -74 -38 -390 -146 -555 -190 -44 -12 -102 -27 -130 -35 -27 -7 -69
-16 -92 -20 -24 -4 -43 -12 -43 -18 0 -7 -5 -5 -10 3 -8 13 -10 12 -10 -2 0
-11 -8 -18 -20 -18 -16 0 -18 -4 -10 -24 6 -16 5 -27 -3 -35 -9 -10 -9 -12 3
-9 8 2 14 -3 12 -11 -2 -8 3 -11 12 -8 10 4 13 1 10 -8 -3 -7 -33 -18 -67 -24
-34 -6 -82 -14 -107 -18 l-45 -8 55 -5 55 -5 -55 -13 c-73 -16 -226 -29 -440
-39 -147 -6 -164 -8 -110 -14 104 -11 293 -10 465 2 88 6 195 12 237 12 43 1
78 6 78 10 0 5 10 5 21 2 49 -16 84 -12 58 7 -12 8 -12 9 0 6 22 -6 27 -94 6
-114 -8 -9 -22 -13 -30 -10 -9 3 -12 0 -9 -8 3 -8 0 -17 -6 -21 -9 -6 -9 -10
1 -16 10 -6 5 -9 -14 -9 -49 0 -95 -38 -49 -41 43 -2 -85 -30 -212 -46 -203
-25 -730 -25 -906 0 -68 10 -126 20 -129 22 -10 11 31 202 49 226 14 20 16 29
7 38 -8 8 -9 14 -1 19 13 8 3 117 -12 131 -5 5 -22 13 -37 17 -26 6 -28 5 -21
-20 7 -30 4 -32 -84 -41 l-64 -6 4 28 c3 27 2 28 -49 31 -57 3 -60 0 -40 -41
8 -17 23 -29 47 -34 25 -6 40 -17 52 -41 9 -18 33 -48 54 -66 l38 -33 -32 -41
c-40 -51 -130 -132 -146 -132 -6 0 -18 5 -26 10 -13 8 -11 14 13 35 31 29 34
42 11 42 -9 0 -23 -15 -32 -34 -20 -41 -41 -48 -89 -28 -21 9 -56 20 -78 25
-71 16 -115 35 -116 50 -2 44 -13 68 -46 102 l-35 36 21 31 c12 17 21 39 20
48 -3 29 12 82 27 94 21 17 18 27 -26 76 -22 25 -40 52 -40 59 0 18 -7 18 -38
-5 -15 -10 -54 -28 -87 -40 -60 -23 -144 -71 -164 -95 -8 -10 -7 -21 4 -42 8
-16 18 -50 21 -76 6 -46 33 -88 57 -88 18 0 77 -75 77 -97 0 -11 -4 -23 -9
-28 -26 -26 27 -153 86 -211 71 -69 509 -393 565 -419 42 -18 271 -61 403 -75
55 -6 116 -13 135 -17 34 -6 32 -7 -30 -19 -131 -26 -208 -18 -520 57 -204 49
-295 78 -432 135 -183 77 -246 128 -400 317 -44 53 -84 95 -89 91 -12 -7 -2
-66 19 -114 8 -19 18 -62 23 -95 4 -33 11 -85 15 -115 4 -30 14 -63 23 -73 10
-12 18 -46 21 -96 5 -67 12 -86 50 -154 40 -71 54 -85 160 -164 63 -47 142
-98 175 -113 176 -79 185 -83 413 -141 170 -44 263 -77 270 -96 12 -38 -214 8
-450 91 -210 74 -289 108 -375 163 -93 58 -89 45 15 -52 128 -119 261 -203
417 -262 44 -17 116 -45 160 -63 178 -71 503 -148 660 -155 33 -1 68 -6 78
-10 10 -4 29 -3 41 3 14 6 27 7 33 1 5 -5 31 -9 58 -10 28 -1 55 -6 61 -11 7
-5 22 -4 37 1 18 7 28 7 32 0 4 -5 15 -7 26 -4 11 4 19 2 19 -4 0 -6 -3 -11
-7 -12 -5 0 -21 -2 -38 -4 -16 -3 -85 -6 -153 -9 -68 -2 -125 -6 -128 -9 -14
-13 68 -16 303 -11 142 4 294 7 338 8 l80 1 5 -40 c4 -29 9 -39 20 -36 8 2 50
5 93 7 43 1 83 6 90 11 33 26 289 98 322 91 15 -3 15 -5 0 -23 -9 -11 -13 -13
-9 -5 6 12 4 12 -12 -2 -22 -19 -144 -79 -144 -71 0 3 -6 1 -13 -5 -34 -29
-146 -52 -180 -37 -9 4 -34 5 -55 3 -20 -3 -49 -1 -64 3 -21 6 -28 4 -28 -7 0
-9 10 -14 29 -14 49 0 91 -12 91 -26 0 -8 -6 -14 -14 -14 -15 0 -22 -17 -57
-125 -12 -38 -24 -76 -27 -82 -10 -30 43 -9 151 60 64 39 116 75 116 79 1 4
-8 10 -19 13 -22 7 -25 43 -5 57 26 19 527 -2 568 -24 21 -11 23 -58 2 -58
-10 0 -15 -11 -16 -35 -2 -59 -3 -60 -29 -57 -75 8 -118 25 -139 52 -18 25
-19 29 -4 23 12 -4 15 -3 8 4 -5 6 -39 18 -74 27 -68 19 -146 16 -229 -10 -37
-11 -232 -129 -232 -140 0 -2 178 -4 396 -4 l395 0 -3 107 -3 107 -30 8 c-16
5 -70 9 -119 9 -79 1 -87 3 -73 16 8 8 46 25 83 38 55 17 70 19 72 8 2 -7 14
-13 28 -13 17 0 24 -6 24 -20 0 -13 5 -18 15 -14 8 4 15 1 15 -5 0 -5 13 -9
30 -8 16 1 30 6 30 11 0 5 3 6 7 3 3 -4 11 0 17 8 8 11 24 12 66 7 l55 -7 3
-43 c2 -23 -6 -78 -17 -122 -12 -44 -21 -82 -21 -85 0 -3 29 -5 65 -5 47 0 64
4 62 13 -1 7 8 12 23 12 15 0 24 -5 23 -12 -4 -16 1132 -19 1142 -3 3 5 0 7
-9 4 -17 -6 -26 21 -23 71 2 25 -2 30 -18 27 -19 -2 -19 -2 -2 11 19 16 23 31
5 25 -6 -2 -20 4 -30 14 -10 10 -24 18 -30 17 -10 0 -10 -2 -1 -5 13 -6 6 -34
-8 -34 -15 0 -10 29 16 87 14 30 24 57 22 60 -3 2 -18 -12 -34 -31 -28 -34
-30 -35 -52 -20 -19 13 -22 22 -17 48 l6 31 -39 -45 c-22 -24 -43 -41 -47 -37
-4 4 -3 7 3 7 8 0 8 7 0 24 l-12 24 -27 -23 c-34 -29 -68 -23 -68 11 0 15 -6
24 -15 24 -8 0 -15 -5 -15 -11 0 -5 -5 -7 -10 -4 -17 11 9 48 28 40 14 -5 15
-4 4 6 -6 7 -12 22 -12 34 0 23 89 125 108 125 7 0 18 11 24 25 6 14 17 25 23
25 7 0 20 9 31 21 19 21 22 21 119 7 12 -2 24 6 32 23 10 21 18 25 38 21 30
-5 31 -16 4 -43 -11 -11 -19 -28 -17 -37 2 -13 10 -10 38 16 19 18 45 41 57
52 12 11 33 19 45 19 13 -1 16 -3 8 -5 -8 -3 -23 -18 -32 -35 -10 -16 -13 -27
-8 -24 6 3 10 1 10 -5 0 -7 7 -10 15 -7 20 8 28 -8 11 -22 -11 -9 -19 -9 -34
0 -11 7 -28 9 -38 5 -18 -7 -17 -9 9 -30 l27 -22 -40 -29 c-22 -17 -40 -36
-40 -43 0 -8 16 0 38 17 118 97 228 170 247 165 13 -4 16 -2 7 4 -10 7 -9 12
5 25 10 8 23 15 28 14 6 -1 14 8 20 21 7 16 18 22 42 22 32 0 41 -16 18 -32
-14 -11 -27 -10 -20 1 3 5 1 12 -3 15 -5 3 -9 -5 -8 -17 1 -14 7 -21 16 -18 8
2 20 4 27 4 6 0 10 7 8 16 -1 9 4 23 13 30 14 13 15 12 10 -7 -5 -17 -2 -22
14 -22 10 0 16 5 13 10 -5 8 14 14 36 12 4 -1 5 8 2 18 -4 15 0 20 15 20 11 0
22 7 26 15 3 8 1 15 -4 15 -21 0 -9 20 15 26 23 6 36 24 16 24 -5 0 -11 7 -15
15 -7 20 -4 19 24 -5 18 -15 25 -17 31 -8 4 7 11 10 14 6 3 -3 -1 -13 -10 -21
-20 -21 -19 -27 5 -27 11 0 20 5 20 10 0 6 6 10 14 10 8 0 17 8 19 18 3 10 5
6 6 -11 1 -17 5 -26 12 -22 6 4 8 13 5 21 -7 19 8 18 24 -1 9 -11 9 -15 1 -15
-7 0 -10 -4 -7 -9 3 -4 17 -6 31 -3 23 4 29 13 26 37 -1 6 5 2 12 -8 17 -20
27 -22 27 -4 0 8 16 14 48 15 71 3 113 13 119 28 3 8 15 14 27 13 20 0 20 -1
-2 -10 -32 -12 -20 -27 18 -21 26 4 31 1 28 -14 -2 -10 2 -19 7 -20 18 -1 95
-36 95 -43 0 -3 -69 -25 -153 -49 -83 -24 -156 -48 -162 -54 -7 -8 -4 -9 10
-4 61 22 198 60 248 69 47 8 61 7 67 -3 5 -8 6 -18 3 -23 -3 -5 -9 -3 -14 4
-8 13 -23 9 -69 -20 -8 -5 -42 -20 -75 -32 -105 -40 -243 -107 -302 -148 -62
-42 -123 -95 -123 -107 0 -4 -16 -22 -35 -41 -19 -19 -35 -39 -35 -44 0 -6 -5
-7 -11 -4 -6 4 -13 -2 -16 -14 -6 -24 -33 -29 -33 -6 0 8 7 15 15 15 8 0 15 6
15 14 0 8 7 16 15 20 8 3 15 12 15 21 0 8 4 15 9 15 4 0 21 19 37 43 16 23 35
46 41 50 7 4 13 15 13 24 0 9 -20 -5 -51 -36 -27 -28 -53 -50 -57 -49 -9 2
-45 -14 -52 -22 -7 -9 -93 -40 -112 -40 -30 0 -132 -52 -155 -78 -13 -15 -30
-40 -37 -57 -19 -39 -109 -132 -123 -128 -6 2 -13 -3 -16 -12 -6 -13 117 -15
1203 -15 l1210 0 0 1426 c0 1354 -1 1426 -17 1420 -17 -6 -17 -5 0 8 16 12 17
51 17 560 l0 547 -22 -7 c-13 -3 -52 -21 -88 -38 -63 -31 -66 -34 -105 -112
-58 -118 -146 -250 -177 -269 -31 -18 -35 -42 -17 -93 7 -20 18 -32 32 -34 29
-4 46 -43 54 -123 6 -67 -2 -81 -28 -49 -27 33 -94 57 -177 64 -71 6 -87 11
-110 33 -34 33 -40 33 -44 5 -3 -20 -8 -23 -43 -21 -49 3 -59 16 -87 108 -25
83 -32 75 -20 -24 5 -41 5 -74 0 -77 -5 -3 -26 5 -46 18 -20 14 -102 68 -182
120 -152 101 -235 146 -246 135 -4 -3 5 -59 19 -124 37 -170 38 -177 29 -190
-6 -10 -24 -8 -77 10 -77 26 -97 46 -77 77 39 63 38 60 17 73 -23 14 -241 77
-266 77 -12 0 -18 14 -22 56 -9 87 -2 97 96 128 94 29 135 63 157 131 12 35 5
99 -8 79 -4 -6 -15 -13 -24 -17 -19 -7 -26 -57 -8 -57 7 0 7 -8 -1 -22 l-12
-22 -12 25 c-18 34 -30 93 -17 85 6 -3 15 8 21 24 11 34 22 37 46 14 15 -15
16 -15 11 7 -3 13 -7 47 -11 76 -7 63 4 72 104 81 l66 7 3 53 c2 31 -1 52 -7
52 -6 0 -11 -5 -11 -10 0 -6 -11 -8 -27 -4 -16 4 -88 9 -161 11 -111 4 -134 7
-141 21 -5 9 -11 62 -15 117 -8 118 -38 300 -66 403 -29 104 -61 162 -121 216
-73 66 -133 94 -205 98 -77 3 -130 -26 -210 -117 -31 -35 -61 -62 -67 -58 -6
3 -7 1 -4 -4 4 -6 -1 -19 -11 -30 -9 -10 -13 -13 -8 -6 19 29 -4 11 -25 -19
-19 -27 -20 -30 -4 -18 18 14 18 14 0 -12 -11 -14 -22 -24 -24 -22 -10 10 -41
-19 -41 -39 l0 -22 18 23 c17 21 17 19 8 -53 -10 -79 -14 -83 -31 -32 -14 45
-74 66 -187 66 -105 1 -180 -14 -204 -40 -24 -26 -14 -31 37 -20 24 5 94 11
154 13 l110 3 -3 -50 c-1 -27 2 -90 8 -140 13 -107 68 -452 76 -479 4 -12 2
-16 -5 -12 -6 4 -11 16 -11 27 0 11 -5 17 -10 14 -6 -4 -8 -11 -4 -16 11 -18
-5 -56 -26 -62 -11 -3 -20 -1 -20 4 0 5 -5 9 -11 9 -5 0 -8 -4 -4 -10 3 -5 -7
-5 -25 1 -17 6 -27 16 -23 22 3 5 1 7 -5 3 -6 -3 -16 -1 -24 6 -7 7 -31 22
-53 33 -22 11 -43 24 -47 30 -5 6 -8 5 -8 -2 0 -7 -5 -13 -11 -13 -6 0 -9 6
-6 14 4 10 0 14 -13 11 -14 -3 -17 1 -13 12 3 8 0 19 -8 24 -12 8 -12 11 1 19
13 8 8 14 -11 12 -3 -1 -16 43 -28 96 -11 53 -26 115 -31 137 -10 43 -11 51 6
-115 4 -41 2 -39 -22 30 -36 106 -52 219 -59 413 -5 127 -3 167 6 162 8 -5 9
-1 4 15 -6 19 -4 22 9 17 10 -4 16 -1 16 8 0 8 5 15 10 15 6 0 10 12 10 26 0
15 4 23 11 19 6 -4 9 -1 7 6 -1 8 10 26 25 41 15 15 27 25 27 22 0 -3 16 15
35 40 85 112 160 170 256 201 69 22 80 35 28 35 -50 0 -133 -34 -211 -86 -85
-56 -232 -124 -278 -127 -17 -1 -30 -5 -30 -9 0 -5 -9 -8 -19 -8 -11 0 -21 -6
-24 -12 -2 -7 -29 37 -60 97 -63 124 -82 153 -74 118 8 -36 -39 -29 -112 15
-76 46 -103 71 -124 114 -14 29 -13 62 2 42 3 -5 17 -10 31 -12 14 -1 32 -11
40 -21 8 -10 29 -22 45 -25 28 -7 29 -6 11 7 -18 13 -16 14 17 12 20 -2 34 1
31 6 -3 5 -14 9 -25 9 -10 0 -19 5 -19 10 0 31 72 -10 136 -79 100 -107 115
-124 132 -155 l17 -31 3 26 c4 37 -36 139 -55 139 -10 0 -13 6 -9 16 3 8 2 13
-3 10 -9 -6 -26 22 -22 37 1 5 -3 6 -8 3 -15 -10 -41 23 -34 42 6 15 5 15 -11
3 -9 -8 -16 -10 -14 -5 2 5 -1 11 -7 13 -5 2 -19 10 -30 17 -27 19 -42 18 -77
-8 l-31 -21 -45 23 c-25 14 -73 45 -107 70 -34 25 -68 50 -77 55 -8 6 -48 32
-89 59 -41 27 -104 74 -141 103 -117 93 -253 178 -415 261 -422 215 -826 321
-1338 352 -164 9 -195 10 -315 3z m540 -72 c58 -7 137 -18 175 -26 39 -8 86
-16 105 -19 213 -31 508 -134 805 -281 259 -127 555 -303 526 -313 -11 -4
-183 105 -189 121 -2 4 -7 7 -12 7 -5 0 -48 23 -97 51 -207 120 -472 239 -688
308 -137 43 -300 82 -309 73 -3 -2 -12 0 -19 7 -17 13 -221 45 -402 62 -168
17 -512 16 -640 0 -317 -40 -546 -107 -772 -227 -120 -62 -138 -58 -26 7 267
153 608 236 1033 252 101 3 394 -9 510 -22z m-881 -135 c7 -8 13 -28 13 -45 1
-27 -13 -53 -112 -201 -10 -14 -27 -43 -38 -65 -11 -22 -50 -69 -86 -104 -64
-63 -65 -66 -48 -85 17 -21 17 -21 -5 -3 -25 22 -22 23 -120 -51 -40 -30 -75
-62 -78 -73 -10 -29 -87 -91 -161 -129 -38 -19 -84 -49 -102 -68 -18 -19 -39
-32 -47 -29 -21 9 -29 90 -16 157 14 70 119 342 163 420 17 30 53 87 80 127
68 98 89 107 319 137 226 29 224 29 238 12z m1229 -291 c-1 -35 -2 -33 -8 15
-5 30 -8 71 -8 90 1 28 2 25 8 -15 5 -27 8 -68 8 -90z m-971 109 c-3 -3 -12
-4 -19 -1 -8 3 -5 6 6 6 11 1 17 -2 13 -5z m133 -131 c0 -5 -5 -15 -10 -23 -8
-12 -10 -11 -10 8 0 12 5 22 10 22 6 0 10 -3 10 -7z m847 -105 c-2 -13 -4 -5
-4 17 -1 22 1 32 4 23 2 -10 2 -28 0 -40z m-412 -38 c-11 -18 -25 1 -25 33 l1
32 15 -28 c8 -15 12 -32 9 -37z m735 27 c0 -2 -15 -16 -32 -33 l-33 -29 29 33
c28 30 36 37 36 29z m-761 -60 c1 -11 -3 -15 -11 -11 -8 5 -9 2 -5 -9 3 -9 0
-29 -8 -44 -8 -15 -15 -33 -15 -40 0 -6 -4 -13 -9 -15 -12 -4 -44 -214 -38
-240 3 -10 2 -18 -3 -18 -14 0 -20 48 -14 104 4 31 11 53 15 50 5 -3 9 2 9 10
0 9 -4 16 -9 16 -13 0 0 132 14 147 7 7 15 9 19 6 6 -7 10 12 7 35 -1 8 6 25
15 40 16 25 18 25 25 7 4 -11 8 -28 8 -38z m-282 1 c-3 -8 -6 -5 -6 6 -1 11 2
17 5 13 3 -3 4 -12 1 -19z m743 -138 c6 0 11 17 11 38 l2 37 7 -35 c4 -19 8
-26 9 -15 1 11 7 40 14 64 l14 44 -1 -81 c-1 -44 -4 -78 -8 -75 -5 2 -8 1 -9
-4 -2 -26 -9 -46 -20 -59 -19 -23 -21 -10 -4 31 9 20 14 39 12 41 -7 7 -38
-76 -32 -86 3 -5 1 -11 -5 -15 -15 -9 -12 -22 5 -22 8 0 12 4 9 9 -8 12 22 39
38 33 8 -3 30 20 56 59 23 35 52 72 64 82 18 16 18 13 -4 -16 -41 -56 -108
-169 -111 -188 -1 -9 -6 -23 -11 -30 -5 -8 -4 -18 2 -24 8 -8 23 0 50 23 51
43 114 81 94 56 -8 -9 -36 -33 -63 -54 -50 -38 -69 -68 -24 -39 13 9 30 16 37
16 7 -1 0 -8 -17 -17 -31 -17 -72 -62 -67 -75 1 -5 -4 -8 -12 -8 -8 0 -25 -19
-39 -42 -22 -37 -26 -40 -33 -24 -5 13 -1 23 12 34 18 14 18 14 -8 10 -30 -6
-43 13 -29 40 4 9 7 22 4 28 -2 6 3 17 11 23 8 7 12 19 9 27 -3 8 1 22 8 32
12 15 12 16 -2 5 -9 -7 -19 -10 -22 -7 -4 4 -5 -3 -2 -14 2 -12 -1 -24 -6 -28
-16 -10 -2 89 15 101 18 14 49 90 43 107 -2 7 -10 -7 -17 -32 -27 -92 -39 -58
-14 40 4 14 9 59 13 100 l6 75 3 -82 c2 -46 7 -83 12 -83z m-543 108 c-3 -8
-6 -5 -6 6 -1 11 2 17 5 13 3 -3 4 -12 1 -19z m783 19 c0 -2 -15 -16 -32 -33
l-33 -29 29 33 c28 30 36 37 36 29z m1130 -146 c0 -18 -5 -12 -54 59 l-38 55
46 -50 c25 -27 46 -56 46 -64z m-2570 42 c0 -30 -10 -23 -28 20 -11 26 -11 27
8 17 12 -7 20 -21 20 -37z m868 13 c14 -5 22 -3 22 4 0 16 34 8 42 -10 12 -27
9 -82 -4 -74 -8 5 -9 2 -5 -9 3 -9 2 -19 -3 -22 -12 -8 -8 -45 5 -45 15 0 35
-88 35 -152 0 -50 -1 -51 -19 -34 -18 17 -20 16 -26 -4 -6 -20 -8 -20 -25 -5
-14 13 -19 13 -23 3 -3 -7 -6 -3 -6 10 -1 12 -5 22 -11 22 -5 0 -7 -7 -4 -15
4 -8 1 -15 -5 -15 -6 0 -11 6 -12 13 0 9 -2 9 -6 -1 -3 -9 -14 -1 -29 22 -14
20 -29 36 -35 36 -5 0 -2 -11 7 -25 8 -13 14 -32 11 -42 -4 -16 -6 -15 -12 5
-9 26 -30 31 -22 5 2 -10 7 -25 9 -33 3 -8 3 -12 1 -7 -9 15 -22 6 -16 -10 6
-16 5 -16 -10 -4 -10 8 -17 9 -17 3 0 -6 7 -15 16 -20 15 -8 15 -10 0 -15 -8
-3 -18 -2 -21 3 -11 18 -26 10 -20 -9 8 -25 -19 -35 -37 -13 -9 11 -10 14 0 8
18 -11 15 10 -5 33 -9 11 -21 17 -26 14 -6 -3 -7 -1 -3 5 3 6 2 13 -4 17 -6 3
-14 -4 -19 -17 -11 -27 -12 -26 -17 30 -4 46 2 54 16 20 8 -22 9 -22 9 5 1 34
21 26 21 -9 0 -13 9 -33 20 -44 17 -17 20 -17 20 -4 0 14 2 15 17 3 17 -15 17
-11 -2 61 -5 20 -4 22 4 10 15 -21 28 0 36 62 7 47 18 60 29 36 3 -7 4 -1 1
14 -3 15 -1 30 5 33 5 3 10 20 10 37 0 23 4 29 15 24 11 -4 15 2 15 22 0 21 2
24 10 12 7 -11 10 -4 10 26 0 43 7 57 24 51 6 -2 21 -7 34 -11z m1748 -119
l15 -32 -25 30 c-26 30 -34 51 -16 40 6 -3 17 -21 26 -38z m-1196 8 c-13 -14
-28 -25 -34 -25 -6 0 3 11 19 25 39 31 45 32 15 0z m147 9 c-3 -3 -12 -4 -19
-1 -8 3 -5 6 6 6 11 1 17 -2 13 -5z m-969 -59 c-3 -3 -9 2 -12 12 -6 14 -5 15
5 6 7 -7 10 -15 7 -18z m-151 -37 c-3 -8 -6 -5 -6 6 -1 11 2 17 5 13 3 -3 4
-12 1 -19z m-7 -100 c0 -5 -4 -8 -10 -8 -5 0 -10 10 -10 23 0 18 2 19 10 7 5
-8 10 -18 10 -22z m-747 5 c-7 -2 -19 -2 -25 0 -7 3 -2 5 12 5 14 0 19 -2 13
-5z m1800 -30 c-7 -2 -19 -2 -25 0 -7 3 -2 5 12 5 14 0 19 -2 13 -5z m-1053
-24 c0 -11 -4 -17 -10 -14 -5 3 -10 13 -10 21 0 8 5 14 10 14 6 0 10 -9 10
-21z m782 -41 c-8 -8 -9 -4 -5 13 4 13 8 18 11 10 2 -7 -1 -18 -6 -23z m268 0
c8 -10 40 -27 70 -38 52 -18 53 -19 15 -14 l-40 5 45 -25 c25 -14 41 -25 37
-26 -5 0 -18 5 -29 11 -12 6 -42 12 -67 14 -25 1 -62 5 -81 9 l-35 7 40 -19
40 -19 -73 -4 c-39 -2 -72 -1 -72 3 0 3 -12 11 -27 16 l-28 10 28 1 c15 1 27
5 27 11 0 5 7 7 15 4 8 -4 15 -2 15 4 0 6 -19 17 -42 26 l-43 16 49 -6 c33 -4
46 -2 41 5 -4 7 5 11 25 11 18 0 29 4 25 10 -11 18 49 6 65 -12z m1430 -83
c25 -17 47 -32 50 -35 3 -3 12 -6 20 -8 8 -2 23 -11 34 -20 21 -20 66 -116 66
-143 0 -10 4 -20 8 -23 5 -3 9 -18 10 -33 0 -15 5 -48 11 -73 5 -25 15 -94 21
-155 13 -127 48 -418 54 -455 3 -14 9 -59 15 -100 6 -41 13 -91 16 -110 6 -31
5 -33 -8 -18 -7 9 -20 42 -27 73 -7 30 -16 55 -20 55 -4 0 -7 11 -7 25 0 31
-28 75 -48 75 -8 0 -18 6 -22 13 -9 14 -78 37 -112 37 -11 0 -21 5 -21 11 0
16 -24 36 -37 32 -30 -10 -44 135 -53 522 -4 193 -11 359 -15 370 -7 18 -6 18
6 4 8 -8 34 -28 59 -44z m-2308 27 c3 7 7 5 12 -7 4 -11 4 -16 -1 -12 -4 5
-13 -7 -19 -25 -10 -29 -13 -31 -19 -13 -5 11 -15 29 -24 40 l-16 20 24 -20
24 -20 -6 23 c-4 18 -3 21 8 12 10 -8 14 -8 17 2z m-175 -24 c-3 -8 -6 -5 -6
6 -1 11 2 17 5 13 3 -3 4 -12 1 -19z m108 2 c3 -5 2 -10 -4 -10 -5 0 -13 5
-16 10 -3 6 -2 10 4 10 5 0 13 -4 16 -10z m979 -16 c5 -14 4 -15 -9 -4 -17 14
-19 20 -6 20 5 0 12 -7 15 -16z m-884 -39 c0 -5 -5 -3 -10 5 -5 8 -10 20 -10
25 0 6 5 3 10 -5 5 -8 10 -19 10 -25z m675 25 c3 -5 -1 -10 -9 -10 -9 0 -16 5
-16 10 0 6 4 10 9 10 6 0 13 -4 16 -10z m376 -27 c13 -16 12 -17 -3 -4 -10 7
-18 15 -18 17 0 8 8 3 21 -13z m-1379 -71 c-7 -2 -9 -9 -6 -14 5 -7 2 -8 -5
-3 -9 5 -10 10 -2 18 16 16 13 30 -5 23 -15 -6 -15 -4 -3 10 12 15 14 14 23
-7 8 -16 7 -24 -2 -27z m239 15 c-10 -9 -11 -8 -5 6 3 10 9 15 12 12 3 -3 0
-11 -7 -18z m485 -39 c5 -7 3 -8 -7 -3 -11 7 -12 6 -2 -6 10 -12 9 -23 -7 -52
-11 -20 -20 -46 -20 -56 0 -11 -4 -22 -10 -26 -5 -3 -6 -13 -3 -21 3 -8 1 -25
-5 -37 -6 -12 -13 -38 -16 -57 -5 -28 -13 -38 -39 -49 -17 -8 -36 -14 -42 -15
-5 -1 -9 -16 -7 -34 2 -18 -1 -32 -7 -32 -6 0 -11 5 -11 10 0 6 -9 10 -19 10
-11 0 -22 6 -24 13 -4 9 -8 8 -16 -3 -8 -12 -11 -12 -17 4 -5 12 -2 23 8 30
13 10 13 13 2 24 -12 11 -14 9 -14 -6 0 -10 -7 -19 -15 -19 -8 0 -12 4 -9 8 2
4 0 10 -6 14 -15 9 -12 35 4 35 9 0 12 10 9 36 -2 23 0 33 7 29 5 -3 10 1 10
9 0 23 17 20 25 -4 3 -11 11 -20 16 -20 8 0 6 22 -8 73 -2 9 0 17 6 17 6 0 12
-15 12 -32 1 -27 3 -28 6 -9 4 19 7 21 14 10 6 -10 9 0 10 31 1 25 4 36 6 26
4 -15 7 -16 14 -5 6 11 11 11 21 1 19 -19 24 -15 37 28 7 22 16 38 21 35 6 -4
10 -1 10 4 0 15 27 14 33 -1 2 -7 7 -10 11 -7 4 3 2 18 -3 33 -8 20 -8 26 4
26 7 0 17 -5 21 -12z m1808 -77 c-4 -14 -13 -39 -20 -56 -12 -29 -12 -29 -13
26 -1 60 3 71 25 62 9 -3 12 -14 8 -32z m-3031 -6 c-3 -9 -8 -14 -10 -11 -3 3
-2 9 2 15 9 16 15 13 8 -4z m658 -12 c13 -16 12 -17 -3 -4 -17 13 -22 21 -14
21 2 0 10 -8 17 -17z m1393 -18 c11 -8 28 -15 39 -15 12 0 17 -5 14 -14 -5
-11 0 -13 24 -6 29 9 46 -1 34 -20 -7 -12 -3 -12 20 -4 13 6 14 9 3 16 -9 7
-8 8 5 4 10 -3 28 -6 39 -6 14 0 18 -5 15 -15 -5 -11 0 -13 24 -8 22 4 29 2
27 -8 -5 -22 -41 -40 -50 -26 -6 9 -8 8 -8 -1 0 -8 -7 -11 -18 -8 -10 4 -27 0
-37 -8 -13 -9 -27 -11 -42 -5 -13 5 -25 4 -28 -2 -4 -5 -12 -9 -18 -8 -7 1
-25 -3 -40 -9 -16 -7 -36 -12 -46 -12 -9 0 -21 -4 -26 -9 -6 -5 -28 -14 -50
-21 -64 -20 -135 -59 -142 -78 -9 -22 -59 -67 -105 -94 -21 -12 -38 -28 -38
-35 0 -8 -4 -11 -10 -8 -5 3 -10 -1 -10 -9 0 -8 10 -21 22 -27 15 -8 18 -14
10 -17 -10 -3 -10 -7 0 -20 7 -9 8 -13 2 -9 -6 3 -21 -5 -32 -18 -25 -29 -17
-32 16 -9 13 9 26 13 29 10 4 -3 16 0 28 8 18 12 24 12 40 -1 13 -10 14 -14 5
-10 -9 2 -24 -1 -35 -9 -10 -8 -28 -14 -39 -14 -12 -1 -32 -14 -45 -30 -23
-27 -26 -28 -42 -14 -15 13 -17 13 -22 -1 -4 -8 -2 -15 4 -15 11 0 1 -51 -14
-65 -7 -7 -8 -4 -4 7 4 12 2 15 -9 11 -17 -6 -19 13 -1 20 9 4 8 8 -3 16 -9 6
-18 7 -24 1 -15 -15 -36 -12 -36 5 0 8 -4 15 -9 15 -5 0 -7 -9 -4 -20 6 -23
36 -43 48 -32 5 4 5 1 1 -6 -4 -7 -13 -9 -19 -5 -7 3 -4 -2 5 -13 16 -18 15
-19 -13 -20 -29 -1 -38 9 -19 21 17 10 11 25 -10 25 -11 0 -20 5 -20 10 0 6
-8 10 -17 10 -16 0 -15 -1 1 -13 21 -15 28 -49 12 -59 -16 -11 -28 -10 -21 2
3 6 -1 7 -10 4 -14 -6 -14 -8 2 -20 16 -12 15 -13 -12 -14 -44 0 -60 13 -46
38 8 15 8 23 -1 28 -7 4 -8 3 -4 -4 4 -7 3 -12 -2 -12 -5 0 -12 9 -15 20 -3
11 -2 20 2 20 11 0 8 82 -3 99 -7 11 -5 13 6 8 13 -4 14 0 8 28 -4 18 -10 37
-14 43 -3 6 -1 12 5 14 8 3 8 11 -2 27 -10 17 -11 25 -3 28 7 2 10 12 7 21 -2
9 5 27 16 39 20 21 23 22 63 7 24 -9 78 -16 123 -17 72 -1 87 2 142 31 75 38
190 144 244 224 54 79 90 96 133 63z m-1369 -83 c-3 -3 -11 0 -18 7 -9 10 -8
11 6 5 10 -3 15 -9 12 -12z m-780 -32 c-4 -13 1 -19 19 -24 14 -3 34 -20 46
-36 25 -34 68 -60 102 -60 13 0 46 11 73 25 62 30 60 30 63 1 2 -32 -55 -83
-103 -92 -80 -15 -195 53 -210 123 -4 16 -13 40 -20 54 -11 19 -11 29 -3 37
16 16 40 -5 33 -28z m4304 10 c40 -20 81 -63 81 -85 0 -7 -7 -18 -15 -25 -10
-8 -15 -9 -15 -2 0 6 -11 23 -25 37 -20 19 -36 25 -72 25 -50 0 -113 -31 -113
-56 0 -8 -4 -14 -8 -14 -13 0 -31 -68 -26 -97 6 -34 7 -36 5 -53 -1 -12 -5
-11 -16 4 -17 23 -20 14 -4 -15 6 -12 17 -18 25 -15 9 3 12 1 9 -4 -3 -6 2
-10 12 -11 66 -3 78 -5 78 -12 0 -13 102 -68 132 -71 27 -3 28 -6 31 -60 4
-66 -13 -101 -56 -117 -39 -15 -94 4 -131 47 -18 19 -37 34 -43 32 -7 -3 -20
18 -30 48 -10 30 -36 81 -58 114 -46 73 -58 130 -41 206 22 96 83 143 184 144
38 0 71 -7 96 -20z m189 -39 c-32 -16 -65 -34 -73 -41 -9 -8 -15 -8 -15 -2 0
22 86 71 125 71 11 0 -5 -13 -37 -28z m-3715 -108 c-7 -2 -19 -2 -25 0 -7 3
-2 5 12 5 14 0 19 -2 13 -5z m122 -23 c8 -13 -5 -13 -25 0 -13 8 -13 10 2 10
9 0 20 -4 23 -10z m-155 -20 c0 -5 -4 -10 -10 -10 -5 0 -10 5 -10 10 0 6 5 10
10 10 6 0 10 -4 10 -10z m145 0 c35 -13 22 -33 -17 -25 -23 6 -29 4 -23 -5 5
-9 4 -11 -3 -6 -19 12 -14 26 11 27 21 0 21 1 2 9 -28 12 -2 12 30 0z m-10
-50 c8 13 25 13 25 -1 0 -5 -5 -7 -12 -3 -7 4 -8 3 -4 -4 4 -7 19 -12 34 -13
24 0 25 -1 7 -9 -18 -7 -19 -8 -2 -15 21 -9 22 -31 2 -39 -8 -3 -15 -10 -15
-16 0 -6 6 -8 13 -4 8 5 7 2 -2 -9 -8 -10 -14 -16 -15 -15 -1 2 -8 11 -15 20
-12 16 -10 19 10 27 23 8 22 10 -23 37 -53 33 -73 59 -33 44 15 -6 27 -6 30 0z
m1048 -32 c-2 -5 1 -8 6 -8 6 0 11 -4 11 -10 0 -5 -9 -10 -20 -10 -11 0 -19
-3 -17 -7 4 -14 -7 -15 -35 -4 -41 16 -44 31 -4 27 19 -1 33 1 30 5 -3 5 1 17
8 29 12 18 13 18 19 2 4 -9 5 -20 2 -24z m-33 28 c0 -3 -4 -8 -10 -11 -5 -3
-10 -1 -10 4 0 6 5 11 10 11 6 0 10 -2 10 -4z m-101 -23 c-4 -24 2 -53 10 -49
4 3 6 -6 3 -19 -4 -21 -1 -24 14 -19 16 5 16 4 4 -5 -22 -16 -50 -13 -50 4 0
8 4 15 8 15 5 0 7 13 4 30 -3 19 -8 27 -16 23 -6 -4 -5 1 3 10 14 18 22 22 20
10z m191 -33 c0 -5 -2 -10 -4 -10 -3 0 -8 5 -11 10 -3 6 -1 10 4 10 6 0 11 -4
11 -10z m-1020 -15 c0 -3 7 -13 16 -22 12 -12 13 -18 4 -21 -17 -6 -49 29 -32
35 6 3 9 10 5 16 -3 7 -3 9 1 5 4 -3 7 -9 6 -13z m883 -11 c-4 -12 -8 -13 -14
-3 -9 15 -2 32 11 24 5 -3 6 -13 3 -21z m-840 -58 c4 -10 1 -13 -9 -9 -7 3
-14 9 -14 14 0 14 17 10 23 -5z m873 -33 c-11 -11 -19 6 -11 24 8 17 8 17 12
0 3 -10 2 -21 -1 -24z m144 33 c0 -3 -4 -8 -10 -11 -5 -3 -10 -1 -10 4 0 6 5
11 10 11 6 0 10 -2 10 -4z m-40 -16 c0 -5 -4 -10 -10 -10 -5 0 -10 5 -10 10 0
6 5 10 10 10 6 0 10 -4 10 -10z m-1086 -25 c3 -9 0 -15 -9 -15 -8 0 -15 7 -15
15 0 8 4 15 9 15 5 0 11 -7 15 -15z m896 -15 c0 -5 -2 -10 -4 -10 -3 0 -8 5
-11 10 -3 6 -1 10 4 10 6 0 11 -4 11 -10z m-230 -160 c0 -5 -7 -10 -15 -10 -8
0 -15 5 -15 10 0 6 7 10 15 10 8 0 15 -4 15 -10z m-59 -21 c-14 -6 -28 -6 -33
-1 -5 5 5 9 24 10 31 0 31 -1 9 -9z m-356 -199 c0 -8 11 -20 25 -27 14 -7 25
-21 25 -31 0 -10 17 -34 37 -54 27 -25 34 -38 26 -46 -6 -6 -17 -8 -24 -5 -17
6 -18 -9 -2 -25 9 -9 7 -12 -10 -12 -12 0 -22 -5 -22 -11 0 -5 -8 -9 -17 -8
-10 1 -22 1 -26 0 -13 -2 26 -35 66 -55 33 -17 40 -18 48 -5 6 9 12 10 17 4 9
-13 30 -19 65 -18 15 0 27 -4 27 -8 0 -5 7 -6 15 -3 8 4 15 1 15 -5 0 -8 -14
-9 -42 -5 -28 5 -39 4 -35 -4 5 -6 0 -8 -13 -5 -11 3 -20 9 -20 14 0 5 -4 9
-10 9 -5 0 -9 -5 -7 -12 1 -8 -20 -11 -71 -11 -56 1 -72 -2 -68 -12 5 -14 -6
-14 -37 0 -29 12 -31 -2 -3 -20 14 -10 26 -25 26 -34 -1 -14 -2 -14 -11 2 -14
23 -106 70 -114 57 -3 -6 -1 -10 4 -10 6 0 11 -5 11 -11 0 -6 -7 -8 -16 -5
-15 6 -15 4 -3 -10 13 -16 12 -16 -8 -5 -14 7 -23 8 -23 2 0 -6 -7 -8 -16 -4
-8 3 -13 12 -10 19 3 8 -4 18 -14 24 -16 9 -20 8 -20 -5 0 -8 4 -15 9 -15 5 0
7 -9 4 -21 -5 -19 -7 -18 -20 12 -11 27 -16 31 -23 19 -5 -8 -10 -10 -10 -5 0
6 -14 19 -31 29 l-31 18 12 -23 13 -24 -22 19 c-12 11 -19 26 -16 33 2 8 0 11
-5 8 -25 -15 -6 47 27 91 44 58 58 70 177 150 68 46 99 61 121 60 18 -1 30 -8
30 -16z m2251 -77 c59 -16 65 -20 79 -56 17 -43 11 -82 -11 -73 -12 5 -18 -5
-15 -26 0 -4 -5 -5 -12 -2 -18 7 -39 -41 -31 -72 9 -34 -3 -30 -26 9 -16 25
-20 28 -20 12 0 -11 4 -26 9 -34 5 -8 7 -21 3 -29 -4 -13 -7 -12 -18 2 -11 16
-17 16 -83 -7 -40 -13 -68 -20 -63 -15 5 5 42 20 82 32 40 13 69 26 64 28 -14
9 -108 -19 -164 -47 -36 -18 -48 -21 -44 -10 4 8 12 15 19 15 7 0 15 4 17 8 6
14 63 48 111 66 26 10 47 22 47 27 0 18 -31 21 -62 6 -18 -9 -34 -15 -35 -13
-3 3 15 75 26 101 29 71 42 95 52 95 6 0 39 -8 75 -17z m-1469 -89 c-3 -3 -12
-4 -19 -1 -8 3 -5 6 6 6 11 1 17 -2 13 -5z m50 -10 c-3 -3 -12 -4 -19 -1 -8 3
-5 6 6 6 11 1 17 -2 13 -5z m50 -10 c-3 -3 -12 -4 -19 -1 -8 3 -5 6 6 6 11 1
17 -2 13 -5z m56 -11 c-7 -2 -19 -2 -25 0 -7 3 -2 5 12 5 14 0 19 -2 13 -5z
m54 -9 c-3 -3 -12 -4 -19 -1 -8 3 -5 6 6 6 11 1 17 -2 13 -5z m1549 -16 c-9
-12 -16 -30 -16 -39 0 -25 -52 -50 -68 -33 -32 35 12 94 70 94 28 0 29 -1 14
-22z m-1381 -18 c13 -5 14 -9 5 -9 -8 0 -24 4 -35 9 -13 5 -14 9 -5 9 8 0 24
-4 35 -9z m-270 -41 c17 -6 15 -8 -10 -8 -16 0 -46 7 -65 15 l-35 14 45 -6
c25 -4 54 -10 65 -15z m52 -15 c-3 -3 -12 -4 -19 -1 -8 3 -5 6 6 6 11 1 17 -2
13 -5z m1491 -19 c0 -14 -4 -25 -9 -25 -5 0 -9 5 -9 10 0 7 -8 7 -22 -1 -38
-20 -50 -49 -21 -49 15 0 15 -2 -2 -14 -16 -12 -17 -18 -7 -40 8 -17 8 -27 1
-32 -6 -3 -9 -18 -6 -32 5 -25 4 -26 -9 -7 -9 12 -12 30 -9 45 4 16 3 20 -3
12 -7 -10 -16 0 -36 37 -14 28 -26 53 -26 56 0 8 122 63 141 64 11 1 17 -7 17
-24z m-1678 -64 c115 -43 161 -63 157 -67 -5 -6 -229 74 -241 86 -16 16 4 12
84 -19z m-1063 -3 c-3 -8 -6 -5 -6 6 -1 11 2 17 5 13 3 -3 4 -12 1 -19z m1410
16 c-3 -3 -12 -4 -19 -1 -8 3 -5 6 6 6 11 1 17 -2 13 -5z m-1152 -25 c11 -17
-1 -21 -15 -4 -8 9 -8 15 -2 15 6 0 14 -5 17 -11z m58 -14 c-7 -21 -13 -19
-13 6 0 11 4 18 10 14 5 -3 7 -12 3 -20z m50 10 c4 0 7 -4 6 -9 0 -5 5 -12 12
-17 8 -4 10 -11 7 -15 -4 -4 -19 4 -33 17 -26 25 -34 46 -12 32 6 -4 15 -8 20
-8z m-183 -56 c0 -8 -7 -6 -18 4 -10 10 -21 15 -23 13 -2 -2 -4 6 -4 20 l0 23
23 -24 c12 -13 22 -30 22 -36z m30 51 c0 -5 -4 -10 -10 -10 -5 0 -10 5 -10 10
0 6 5 10 10 10 6 0 10 -4 10 -10z m865 -14 c30 -14 55 -27 55 -30 0 -5 -111
42 -119 50 -10 9 12 2 64 -20z m1297 -9 c-3 -23 2 -38 17 -51 22 -20 28 -46
12 -46 -5 0 -20 14 -33 30 l-24 30 -64 -30 c-36 -17 -82 -38 -102 -48 -21 -9
-38 -20 -38 -24 0 -5 -9 -8 -20 -8 -47 0 -7 33 95 78 39 17 82 34 98 37 15 4
26 13 25 21 -2 10 13 28 37 44 1 0 -1 -15 -3 -33z m-1907 -5 c-7 -8 -35 7 -35
18 0 6 7 6 20 -2 10 -7 17 -14 15 -16z m-350 -12 c3 -5 1 -10 -4 -10 -6 0 -11
5 -11 10 0 6 2 10 4 10 3 0 8 -4 11 -10z m568 -17 c-7 -2 -19 -2 -25 0 -7 3
-2 5 12 5 14 0 19 -2 13 -5z m608 -14 c27 -12 48 -23 46 -25 -2 -3 -28 7 -58
20 -66 31 -57 34 12 5z m-266 -121 l100 -102 -95 89 c-147 137 -148 139 -125
127 11 -6 65 -57 120 -114z m1658 102 c3 -11 1 -18 -4 -14 -5 3 -9 12 -9 20 0
20 7 17 13 -6z m-348 -9 c-6 -5 -23 -12 -40 -16 l-30 -6 30 15 c35 17 53 20
40 7z m-925 -26 c25 -13 41 -24 35 -24 -5 0 -30 11 -55 24 -25 13 -40 24 -35
24 6 0 30 -11 55 -24z m1210 -17 c0 -10 -115 -68 -135 -68 -8 0 -15 5 -15 10
0 6 8 10 18 10 9 0 23 10 31 21 8 14 16 18 20 11 4 -7 14 -6 31 4 l25 15 -25
-6 c-25 -5 -25 -5 -2 6 12 7 22 19 22 28 1 13 3 13 15 -3 8 -11 15 -23 15 -28z
m-1636 -100 c48 -60 84 -108 82 -108 -2 0 -50 55 -107 123 -57 67 -94 115 -83
107 12 -8 61 -63 108 -122z m1386 122 c0 -5 -10 -10 -22 -9 -22 0 -22 1 -3 9
11 5 21 9 23 9 1 1 2 -3 2 -9z m-110 -4 c0 -3 -25 -19 -56 -36 -44 -26 -52
-34 -41 -44 31 -26 63 -97 35 -80 -8 5 -9 1 -5 -12 6 -15 3 -14 -13 5 -16 19
-18 26 -8 32 12 8 4 13 -14 10 -4 0 -12 8 -18 19 -6 11 -7 20 -3 20 4 0 1 5
-7 11 -11 8 -12 12 -3 16 7 2 14 4 15 3 2 0 28 13 58 29 59 33 60 33 60 27z
m755 -12 c-11 -8 -101 -63 -200 -121 -213 -126 -263 -170 -299 -257 -28 -72
-76 -249 -76 -283 0 -24 -10 -29 -25 -14 -6 6 -61 35 -122 66 -62 31 -113 61
-113 66 0 5 -5 9 -12 9 -6 0 -19 6 -27 14 -14 13 -22 10 -70 -30 -29 -24 -90
-68 -135 -98 -89 -59 -364 -211 -371 -205 -2 3 52 38 121 79 68 41 164 103
212 138 48 35 121 86 162 114 41 27 92 71 113 96 63 78 120 132 141 136 80 15
186 40 211 51 17 7 42 16 58 19 22 5 27 12 27 35 0 34 54 81 92 81 21 -1 19
-5 -21 -40 -24 -22 -40 -40 -36 -40 4 0 64 38 134 83 157 104 148 99 191 108
58 11 67 10 45 -7z m-2261 -71 c20 -32 36 -62 36 -67 0 -12 -17 11 -54 77 -39
66 -25 59 18 -10z m114 -16 c47 -64 49 -67 12 -27 -52 56 -84 100 -73 99 4 0
32 -32 61 -72z m-69 29 c-3 -3 -11 5 -18 17 -13 21 -12 21 5 5 10 -10 16 -20
13 -22z m1831 20 c0 -5 -88 -53 -277 -153 -73 -38 -124 -60 -128 -53 -3 6 78
52 195 110 201 99 210 104 210 96z m-353 -48 c-3 -8 -6 -5 -6 6 -1 11 2 17 5
13 3 -3 4 -12 1 -19z m-2169 -12 c6 -30 -13 -39 -34 -15 -10 13 -13 19 -5 14
11 -6 13 -4 8 9 -5 13 -2 17 10 14 10 -2 19 -12 21 -22z m2142 -38 c0 -6 -6
-5 -15 2 -8 7 -15 14 -15 16 0 2 7 1 15 -2 8 -4 15 -11 15 -16z m-1290 -68
c30 -43 18 -37 -16 7 -15 20 -23 33 -16 29 6 -3 21 -20 32 -36z m3923 -190
c43 -11 125 -25 183 -32 l104 -12 -48 -42 c-39 -36 -56 -44 -102 -49 -84 -9
-100 -14 -100 -30 0 -7 -4 -25 -9 -38 l-10 -25 -66 18 c-36 10 -67 15 -69 11
-2 -3 -6 -28 -7 -55 -3 -38 1 -50 15 -58 14 -8 66 -104 66 -123 0 -16 -57 5
-230 83 -107 49 -210 97 -228 106 -45 23 -57 11 -72 -69 -17 -88 -31 -98 -76
-54 -54 51 -113 143 -151 233 -47 115 -44 125 28 84 42 -23 47 -22 54 12 6 33
11 35 52 22 33 -10 38 -9 59 13 13 14 24 26 26 27 2 1 93 4 203 7 212 6 254 3
378 -29z m417 -123 c0 -12 14 -39 31 -60 17 -21 30 -40 28 -41 -2 -2 -28 -18
-57 -35 -50 -30 -56 -31 -111 -22 -78 13 -139 30 -146 41 -7 12 27 30 58 30
13 0 35 8 48 18 48 37 131 92 140 92 5 0 9 -10 9 -23z m-400 -338 c0 -5 4 -8
9 -4 5 3 13 0 16 -6 5 -7 -1 -9 -16 -7 -22 3 -40 28 -20 28 6 0 11 -5 11 -11z
m-3283 -164 c3 -9 -1 -23 -10 -33 -8 -9 -17 -26 -18 -36 -2 -11 -10 -21 -16
-24 -9 -2 -13 11 -13 46 0 31 5 52 13 55 23 10 38 7 44 -8z m-77 -20 c0 -14
-4 -25 -9 -25 -4 0 -20 -12 -34 -26 -23 -23 -28 -24 -33 -10 -6 15 -7 15 -19
-1 -19 -25 -38 -23 -52 7 -8 17 -12 20 -13 8 0 -12 -12 -18 -47 -23 -27 -4
-72 -10 -100 -14 -40 -6 -53 -5 -53 5 0 15 57 36 180 64 52 13 104 26 115 31
11 4 30 8 43 8 17 1 22 -5 22 -24z m-2170 -57 l-1 -33 -19 24 c-25 30 -25 41
0 41 16 0 20 -7 20 -32z m1997 -82 c-8 -9 -24 -12 -36 -9 -29 7 -16 23 20 23
27 0 29 -2 16 -14z m-667 -190 c0 -2 -7 -7 -16 -10 -8 -3 -12 -2 -9 4 6 10 25
14 25 6z m-1928 -126 c68 -40 146 -88 174 -106 28 -19 57 -34 64 -34 7 0 11
-2 8 -5 -11 -12 -137 27 -213 64 -92 46 -195 124 -195 147 0 25 26 14 162 -66z
m1825 74 c-3 -3 -12 -4 -19 -1 -8 3 -5 6 6 6 11 1 17 -2 13 -5z m-1602 -84 c6
-18 -9 -60 -21 -60 -17 0 -44 23 -44 38 0 40 54 58 65 22z m676 -246 c51 -17
163 -33 309 -44 108 -7 93 -8 -110 -5 -224 4 -311 11 -427 37 -64 14 -61 26 4
21 26 -2 66 0 88 5 43 10 79 6 136 -14z m-1140 -295 c79 -119 199 -222 354
-302 28 -14 64 -36 80 -47 l30 -22 -36 6 c-75 13 -226 67 -272 96 -50 34 -127
123 -127 147 0 11 -7 13 -25 9 -34 -9 -66 26 -88 97 -18 57 -21 89 -10 101 17
17 41 -5 94 -85z m2089 -74 c0 -11 -210 -20 -248 -10 -13 3 -20 10 -17 16 9
13 265 8 265 -6z m265 5 c-16 -4 -41 -8 -55 -8 -23 -1 -23 0 -5 8 11 5 36 8
55 8 l35 0 -30 -8z m3477 -363 c-1 -15 2 -27 8 -27 6 0 9 4 5 9 -3 5 -1 12 5
16 5 3 10 1 10 -4 0 -6 6 -11 13 -11 16 0 58 -42 61 -61 3 -24 17 -40 28 -33
7 4 8 2 4 -4 -4 -7 -1 -12 8 -12 8 0 18 9 21 20 4 11 11 18 16 14 6 -3 18 1
28 10 16 15 19 15 31 1 11 -13 10 -14 -4 -9 -9 3 -16 1 -16 -5 0 -6 -7 -11
-15 -11 -8 0 -14 -6 -12 -12 1 -7 -6 -13 -16 -13 -9 0 -28 -14 -42 -30 -13
-17 -24 -26 -25 -22 0 5 -7 1 -16 -7 -19 -20 -29 -20 -47 -2 -12 13 -17 13
-36 0 -12 -9 -19 -20 -16 -25 4 -5 0 -9 -8 -9 -8 0 -17 6 -20 14 -6 15 6 29
36 39 9 4 17 16 17 27 0 11 5 20 11 20 5 0 8 4 5 9 -4 5 -19 3 -36 -5 -30 -15
-56 -11 -45 7 4 5 4 9 0 9 -3 0 -10 -10 -16 -22 -9 -22 -9 -21 -4 3 l5 27 -43
-13 c-42 -12 -87 -4 -87 17 0 5 -5 6 -10 3 -14 -9 -10 65 4 86 7 9 24 14 43
13 18 -1 34 4 37 11 2 8 15 11 30 8 14 -3 26 -1 26 5 0 5 13 7 33 3 27 -6 32
-11 29 -34z m-5067 -28 c179 -39 349 -86 352 -96 5 -13 -172 -15 -197 -2 -69
35 -280 109 -310 109 -27 0 -62 18 -55 29 2 5 31 2 62 -6 32 -8 99 -23 148
-34z m3483 3 c5 -17 -13 -15 -27 2 -10 12 -9 14 5 12 10 -2 20 -8 22 -14z
m2002 -52 c0 -5 -7 -10 -15 -10 -8 0 -15 5 -15 10 0 6 7 10 15 10 8 0 15 -4
15 -10z m-96 -38 c11 -17 -14 -35 -52 -37 -35 -2 -39 0 -27 11 7 8 21 14 29
14 9 0 16 5 16 10 0 12 27 13 34 2z m-1044 -21 c0 -18 -29 -32 -55 -25 -32 8
-14 24 19 17 17 -4 18 -3 6 6 -12 9 -11 11 8 11 12 0 22 -4 22 -9z m639 -10
c5 -7 15 -11 24 -9 9 2 16 0 16 -4 2 -22 0 -26 -11 -24 -18 2 -78 39 -78 46 0
12 41 4 49 -9z m513 -3 c-7 -7 -12 -8 -12 -2 0 14 12 26 19 19 2 -3 -1 -11 -7
-17z m-222 -28 c12 -8 11 -10 -7 -10 -13 0 -23 5 -23 10 0 13 11 13 30 0z
m-50 -30 c0 -6 8 -5 20 2 10 7 22 9 26 5 10 -9 -8 -28 -29 -31 -9 -1 -29 -13
-43 -27 -21 -18 -26 -20 -21 -6 4 12 1 17 -11 18 -14 1 -14 2 -1 6 8 2 21 13
29 23 16 22 30 26 30 10z m-1870 -8 c0 -11 -112 -82 -129 -82 -21 0 -6 13 60
54 57 36 69 41 69 28z m850 -2 c0 -5 -7 -10 -16 -10 -8 0 -12 5 -9 10 3 6 10
10 16 10 5 0 9 -4 9 -10z m900 0 c0 -5 -5 -10 -11 -10 -5 0 -7 5 -4 10 3 6 8
10 11 10 2 0 4 -4 4 -10z m-70 -40 c0 -5 -7 -10 -16 -10 -8 0 -12 5 -9 10 3 6
10 10 16 10 5 0 9 -4 9 -10z m130 -14 c0 -3 -4 -8 -10 -11 -5 -3 -10 -1 -10 4
0 6 5 11 10 11 6 0 10 -2 10 -4z m-250 -49 c0 -5 -7 -7 -15 -3 -8 3 -15 2 -15
-2 0 -4 -19 -13 -42 -20 -24 -8 -56 -20 -73 -27 -16 -8 -37 -15 -45 -17 -8 -2
-17 -6 -20 -9 -3 -3 -43 -25 -90 -50 -46 -24 -107 -65 -134 -91 -27 -27 -51
-48 -53 -48 -2 0 -3 7 -3 16 0 8 24 39 53 67 41 41 76 63 162 101 148 65 174
75 213 82 8 1 16 5 19 8 8 8 43 2 43 -7z m-3380 -85 c0 -11 -149 -37 -158 -28
-4 4 2 14 12 22 21 15 146 20 146 6z m1393 -20 c9 -8 16 -17 14 -18 -1 -2 -32
8 -67 21 l-65 24 50 -6 c28 -3 58 -13 68 -21z m-1586 -18 c2 -7 -17 -12 -53
-13 -31 -1 -61 -4 -66 -7 -5 -3 -31 -7 -58 -8 -36 -2 -47 1 -43 11 3 7 8 11
13 8 4 -2 38 2 76 10 78 15 126 15 131 -1z m-330 -50 c-9 -9 -28 6 -21 18 4 6
10 6 17 -1 6 -6 8 -13 4 -17z m1874 -28 c29 -6 45 -41 24 -50 -8 -3 -53 2
-102 12 l-88 16 54 16 c30 10 62 16 70 14 9 -1 28 -5 42 -8z m-24 -72 c-3 -3
-12 -4 -19 -1 -8 3 -5 6 6 6 11 1 17 -2 13 -5z m1547 -18 c-3 -9 -10 -16 -15
-16 -5 0 -4 9 3 20 14 22 21 20 12 -4z m-47 -55 c0 -11 -5 -17 -9 -15 -4 3 -8
0 -8 -5 0 -17 -71 -91 -86 -91 -8 0 -14 -4 -14 -9 0 -5 -6 -11 -14 -14 -10 -4
-12 0 -9 13 3 11 13 22 22 26 9 3 39 30 66 59 28 28 51 53 52 54 1 0 1 -8 0
-18z m-905 -31 c6 0 6 -6 -2 -15 -16 -19 -34 -19 -49 -1 -13 16 3 28 27 20 8
-2 18 -4 24 -4z m-1605 -66 c-3 -3 -12 -4 -19 -1 -8 3 -5 6 6 6 11 1 17 -2 13
-5z m884 -14 c6 0 7 -4 4 -10 -7 -12 -55 -13 -55 -2 0 15 13 23 28 17 7 -3 18
-5 23 -5z"/>
<path d="M6101 5584 c0 -11 3 -14 6 -6 3 7 2 16 -1 19 -3 4 -6 -2 -5 -13z"/>
<path d="M6649 5318 c0 -2 -2 -11 -4 -21 -3 -15 -1 -16 11 -6 7 6 11 15 8 20
-5 9 -13 12 -15 7z"/>
<path d="M6620 5255 c-11 -13 -10 -14 4 -9 9 3 16 10 16 15 0 13 -6 11 -20 -6z"/>
<path d="M6217 5419 c-13 -49 -7 -94 17 -124 37 -45 63 -4 38 58 -7 16 -12 31
-12 35 0 4 -9 18 -19 31 l-18 24 -6 -24z"/>
<path d="M6330 5425 c0 -5 5 -17 10 -25 5 -8 10 -10 10 -5 0 6 -5 17 -10 25
-5 8 -10 11 -10 5z"/>
<path d="M6161 5294 c0 -11 3 -14 6 -6 3 7 2 16 -1 19 -3 4 -6 -2 -5 -13z"/>
<path d="M6840 5174 c0 -8 62 -35 72 -32 6 2 -8 11 -31 20 -22 9 -41 15 -41
12z"/>
<path d="M6310 4821 c0 -6 4 -13 10 -16 6 -3 7 1 4 9 -7 18 -14 21 -14 7z"/>
<path d="M6840 4420 c-8 -5 -10 -10 -5 -10 6 0 17 5 25 10 8 5 11 10 5 10 -5
0 -17 -5 -25 -10z"/>
<path d="M6805 4379 c7 -22 -5 -25 -24 -6 -11 10 -12 9 -6 -2 6 -11 4 -13 -11
-7 -37 15 -49 18 -39 9 6 -4 11 -14 13 -22 3 -12 1 -12 -14 0 -15 12 -17 12
-9 0 6 -11 4 -13 -8 -8 -9 3 -18 0 -21 -9 -3 -8 -16 -15 -28 -15 -17 -1 -18
-2 -5 -6 20 -5 21 -8 6 -35 -8 -15 -8 -19 0 -13 7 4 19 1 28 -7 14 -11 15 -9
12 24 -4 26 -1 34 8 31 7 -3 13 -9 13 -13 0 -13 29 -20 36 -8 5 7 2 8 -6 3 -8
-5 -11 -3 -8 6 3 8 11 13 19 11 53 -13 69 -13 69 -3 0 7 -5 9 -10 6 -6 -3 -13
1 -16 10 -5 11 -9 13 -14 5 -4 -6 -15 -8 -25 -4 -17 7 -17 8 0 20 13 10 23 10
38 3 13 -7 17 -8 13 -1 -3 6 -1 14 5 18 6 4 16 -1 21 -10 11 -20 28 -12 28 14
0 10 6 21 13 23 6 3 -9 5 -36 5 -42 -1 -47 -3 -42 -19z"/>
<path d="M6596 4302 c-3 -6 -1 -14 5 -17 15 -10 25 3 12 16 -7 7 -13 7 -17 1z"/>
<path d="M6845 4300 c3 -5 8 -10 11 -10 2 0 4 5 4 10 0 6 -5 10 -11 10 -5 0
-7 -4 -4 -10z"/>
<path d="M6620 4191 c0 -5 9 -7 20 -4 11 3 20 7 20 9 0 2 -9 4 -20 4 -11 0
-20 -4 -20 -9z"/>
<path d="M9371 4324 c-12 -15 -21 -38 -21 -51 0 -31 51 -83 82 -83 29 0 68 26
68 46 0 8 4 13 9 9 5 -3 13 0 17 6 4 7 3 9 -3 6 -6 -4 -16 0 -23 9 -10 12 -11
17 -1 27 10 9 11 9 6 -4 -4 -10 0 -16 10 -16 10 0 14 9 13 27 -2 28 -23 37
-32 13 -6 -16 -52 -18 -61 -2 -4 6 -14 8 -23 4 -13 -5 -12 -2 3 15 18 20 18
20 -3 20 -11 0 -30 -12 -41 -26z"/>
<path d="M10200 899 c0 -5 5 -7 10 -4 6 3 10 8 10 11 0 2 -4 4 -10 4 -5 0 -10
-5 -10 -11z"/>
<path d="M10410 840 c0 -5 5 -10 10 -10 6 0 10 5 10 10 0 6 -4 10 -10 10 -5 0
-10 -4 -10 -10z"/>
<path d="M10410 795 c0 -2 14 -11 30 -20 29 -15 30 -15 30 5 0 16 -7 20 -30
20 -16 0 -30 -2 -30 -5z"/>
<path d="M11491 5588 c0 -13 3 -17 6 -9 5 11 7 11 14 0 6 -10 9 -8 9 9 0 13
-6 22 -15 22 -9 0 -15 -9 -14 -22z"/>
<path d="M8300 5563 c0 -5 4 -14 9 -22 6 -9 10 -10 16 -2 5 9 10 9 21 0 7 -6
12 -15 9 -19 -3 -4 2 -11 11 -14 13 -5 12 -1 -3 24 -10 17 -23 28 -30 26 -7
-3 -13 -1 -13 4 0 6 -4 10 -10 10 -5 0 -10 -3 -10 -7z"/>
<path d="M8255 5550 c3 -6 20 -17 37 -26 23 -12 33 -13 42 -4 8 8 7 10 -6 5
-11 -4 -20 1 -28 14 -6 12 -20 21 -31 21 -11 0 -17 -5 -14 -10z"/>
<path d="M11424 5538 c-19 -15 -22 -27 -21 -74 1 -49 5 -59 29 -77 15 -11 28
-28 28 -37 0 -16 39 -60 53 -60 4 0 7 61 7 135 l0 136 -36 -3 c-20 -1 -47 -10
-60 -20z"/>
<path d="M8405 5480 c-3 -5 -2 -10 4 -10 5 0 13 5 16 10 3 6 2 10 -4 10 -5 0
-13 -4 -16 -10z"/>
<path d="M8435 5460 c-3 -5 -3 -10 2 -10 4 0 2 -4 -6 -9 -9 -6 -10 -11 -2 -15
6 -4 11 -2 11 4 0 6 5 8 13 4 9 -6 9 -5 0 8 -7 8 -10 18 -6 21 3 4 4 7 0 7 -3
0 -9 -4 -12 -10z"/>
<path d="M5655 5316 c-11 -16 -15 -41 -13 -73 l3 -48 21 73 c22 73 17 92 -11
48z"/>
<path d="M9354 5253 c-3 -18 -9 -31 -13 -28 -4 2 -13 0 -21 -6 -13 -7 -13 -9
0 -9 9 -1 5 -6 -9 -14 l-25 -14 30 -1 c49 -1 63 -4 58 -12 -2 -5 -11 -6 -19
-3 -7 3 -22 1 -32 -5 -16 -9 -16 -10 -1 -11 9 0 19 -6 21 -12 4 -10 8 -9 16 2
7 10 11 11 11 3 0 -8 13 -13 33 -13 25 0 29 3 17 11 -11 7 -12 12 -3 15 7 3 9
12 6 20 -4 11 -8 12 -19 3 -12 -10 -13 -9 -8 5 3 9 12 16 20 16 11 0 10 4 -3
18 -10 9 -26 29 -35 42 l-17 25 -7 -32z m26 -34 c0 -11 -4 -17 -10 -14 -5 3
-10 13 -10 21 0 8 5 14 10 14 6 0 10 -9 10 -21z"/>
<path d="M10156 5252 c-3 -6 -1 -14 5 -17 15 -10 25 3 12 16 -7 7 -13 7 -17 1z"/>
<path d="M9003 5211 c-37 -9 -107 -50 -144 -84 -50 -45 -156 -194 -172 -242
-18 -51 -23 -180 -9 -189 5 -3 10 18 10 47 1 29 5 66 8 82 10 49 51 111 83
125 18 7 36 26 46 48 18 39 82 112 98 112 5 0 4 -7 -3 -15 -8 -10 7 -6 43 10
37 17 82 28 138 32 46 4 76 9 67 11 -31 6 -19 21 20 24 l37 3 -35 19 c-38 21
-137 30 -187 17z"/>
<path d="M8470 5188 c0 -13 39 -53 45 -46 2 2 -8 16 -21 31 -13 15 -24 22 -24
15z"/>
<path d="M10176 5161 c-11 -18 3 -64 26 -87 13 -12 30 -30 40 -40 48 -56 68
-67 139 -78 28 -4 32 5 23 59 -3 26 -12 34 -49 49 -25 11 -45 22 -45 25 0 4
-17 13 -37 20 -21 7 -50 24 -64 38 -16 15 -29 21 -33 14z"/>
<path d="M4200 5139 c-10 -18 -9 -20 7 -17 10 2 19 11 21 21 5 24 -15 21 -28
-4z"/>
<path d="M5610 5125 c0 -8 2 -15 4 -15 2 0 6 7 10 15 3 8 1 15 -4 15 -6 0 -10
-7 -10 -15z"/>
<path d="M8538 5113 c6 -2 18 -2 25 0 6 3 1 5 -13 5 -14 0 -19 -2 -12 -5z"/>
<path d="M10669 5046 c16 -19 44 -21 39 -3 -3 6 -15 14 -28 15 -21 3 -22 2
-11 -12z"/>
<path d="M10910 5033 c-97 -4 -150 -13 -150 -24 0 -14 58 -62 94 -77 19 -8 75
-13 151 -13 67 0 134 -4 151 -8 16 -5 23 -10 15 -10 -8 -1 -11 -8 -8 -21 3
-13 -1 -21 -14 -25 -11 -4 -17 -11 -14 -16 4 -5 1 -9 -4 -9 -6 0 -11 -8 -11
-17 0 -15 -2 -16 -10 -3 -8 13 -10 13 -10 -2 0 -11 -6 -15 -19 -11 -10 3 -22
0 -25 -6 -4 -6 -16 -11 -27 -11 -20 0 -26 -24 -9 -35 6 -4 10 -3 9 2 -3 19 2
27 10 15 6 -10 36 2 129 55 67 37 124 73 126 80 3 8 -1 10 -11 6 -11 -4 -14
-2 -9 5 4 7 3 12 -3 12 -5 0 -11 -6 -14 -12 -3 -10 -9 -10 -26 0 -11 6 -30 12
-41 12 -11 0 -20 5 -20 10 0 6 4 10 10 10 6 0 8 18 6 41 l-3 40 -69 5 c-38 2
-85 5 -104 7 -19 2 -64 2 -100 0z"/>
<path d="M5831 4874 c0 -11 3 -14 6 -6 3 7 2 16 -1 19 -3 4 -6 -2 -5 -13z"/>
<path d="M8621 4834 c0 -11 3 -14 6 -6 3 7 2 16 -1 19 -3 4 -6 -2 -5 -13z"/>
<path d="M5737 4786 c-11 -8 -14 -17 -8 -20 5 -4 15 3 21 14 13 23 11 24 -13
6z"/>
<path d="M11367 4683 c-31 -8 -12 -28 30 -31 28 -2 46 3 64 17 l24 20 -50 0
c-27 -1 -58 -3 -68 -6z"/>
<path d="M4873 4573 c-18 -7 -33 -18 -33 -23 0 -6 -11 -10 -24 -10 -30 0 -50
-23 -41 -50 5 -16 12 -19 32 -14 l26 7 -22 -22 c-20 -20 -20 -23 -6 -38 12
-11 13 -18 5 -23 -8 -5 -7 -9 4 -13 9 -4 16 -12 16 -19 0 -15 100 -108 117
-108 11 0 33 -30 33 -44 0 -22 -178 21 -191 45 -7 14 -19 17 -61 13 -59 -4
-78 -21 -78 -65 0 -40 16 -44 51 -15 17 14 39 26 50 26 10 0 19 5 19 10 0 6 5
10 11 10 5 0 7 -5 4 -10 -3 -6 3 -23 15 -40 19 -27 24 -29 73 -24 29 3 67 12
85 21 38 16 69 14 94 -7 56 -49 69 -63 64 -76 -4 -10 2 -14 19 -14 28 0 33 15
9 24 -21 8 -8 25 15 19 29 -7 34 13 7 31 -23 14 -25 14 -28 -1 -3 -15 -5 -15
-18 -2 -8 8 -23 18 -32 22 -10 3 -18 11 -18 17 0 14 42 2 52 -14 4 -6 8 1 8
16 0 29 -18 47 -29 30 -4 -6 -12 -7 -20 -3 -7 5 -11 13 -7 19 3 6 1 12 -5 14
-7 2 5 4 26 4 21 0 33 -2 27 -4 -7 -2 -4 -11 8 -24 10 -11 24 -17 30 -13 8 5
6 13 -7 27 -20 23 -20 27 -1 39 24 16 35 9 33 -21 -1 -18 3 -29 9 -27 6 2 11
11 11 20 0 23 11 30 30 20 15 -9 15 -12 2 -24 -12 -13 -11 -16 9 -26 31 -15
39 0 20 37 -12 25 -12 30 -1 30 20 0 30 21 14 30 -7 5 -16 7 -20 5 -3 -3 -5 7
-3 20 1 14 -2 23 -7 19 -5 -3 -9 0 -9 5 0 6 -17 18 -37 26 -20 9 -69 39 -108
68 -138 103 -175 120 -222 100z m32 -143 c3 -5 -1 -10 -9 -10 -8 0 -18 5 -21
10 -3 6 1 10 9 10 8 0 18 -4 21 -10z m130 -40 c4 -6 -6 -10 -22 -9 -25 0 -26
1 -8 9 11 5 21 9 22 9 1 1 5 -3 8 -9z m-110 -20 c3 -5 -3 -10 -14 -10 -12 0
-21 5 -21 10 0 6 6 10 14 10 8 0 18 -4 21 -10z m159 -5 c4 -11 -2 -15 -26 -15
-30 0 -31 1 -12 15 24 18 31 18 38 0z m-117 -11 c-3 -3 -12 -4 -19 -1 -8 3 -5
6 6 6 11 1 17 -2 13 -5z m213 -8 c0 -3 -4 -8 -10 -11 -5 -3 -10 -1 -10 4 0 6
5 11 10 11 6 0 10 -2 10 -4z m-95 -16 c3 -5 1 -10 -4 -10 -6 0 -11 5 -11 10 0
6 2 10 4 10 3 0 8 -4 11 -10z m-82 -16 c56 -19 60 -30 11 -36 -26 -3 -38 0
-42 11 -3 9 -13 21 -21 28 -22 17 -3 16 52 -3z m227 12 c0 -11 -19 -15 -25 -6
-3 5 1 10 9 10 9 0 16 -2 16 -4z m-190 -66 c0 -5 -4 -10 -10 -10 -5 0 -10 5
-10 10 0 6 5 10 10 10 6 0 10 -4 10 -10z"/>
<path d="M3900 4444 c0 -59 27 -264 40 -314 19 -67 30 -69 30 -5 0 53 -54 352
-65 364 -3 2 -5 -18 -5 -45z"/>
<path d="M10641 4421 c-11 -27 -21 -62 -21 -76 0 -17 -12 -39 -34 -61 -19 -19
-31 -34 -27 -35 3 0 72 -1 154 -2 l147 -2 0 30 c0 16 -3 41 -7 54 -6 22 -9 23
-64 17 -54 -6 -59 -5 -59 12 0 19 41 45 83 54 10 1 18 6 18 11 -1 10 -5 10
-66 -4 -60 -13 -85 -4 -85 32 0 34 -17 20 -39 -30z"/>
<path d="M8672 4440 c0 -14 2 -19 5 -12 2 6 2 18 0 25 -3 6 -5 1 -5 -13z"/>
<path d="M11083 4355 c10 -61 24 -63 29 -5 2 27 -1 35 -16 38 -17 4 -18 0 -13
-33z"/>
<path d="M11450 4309 c0 -5 -4 -8 -9 -5 -10 6 -21 -16 -21 -42 0 -15 2 -15 10
-2 9 13 11 13 20 0 8 -12 10 -13 10 -1 1 64 36 -104 39 -186 1 -7 6 -13 11
-13 6 0 10 50 10 130 l0 130 -35 0 c-19 0 -35 -5 -35 -11z"/>
<path d="M5296 4294 c-26 -18 -17 -24 12 -8 13 6 20 14 15 17 -4 3 -17 -1 -27
-9z"/>
<path d="M5653 4285 c0 -6 6 -12 12 -12 6 0 12 6 12 12 0 6 -6 12 -12 12 -6 0
-12 -6 -12 -12z"/>
<path d="M5982 4273 c-2 -22 0 -24 13 -13 18 15 19 26 2 33 -8 3 -14 -4 -15
-20z"/>
<path d="M5926 4261 c-4 -5 1 -8 9 -7 21 3 31 16 12 16 -9 0 -18 -4 -21 -9z"/>
<path d="M11160 4227 c0 -19 16 -31 24 -18 3 5 -1 14 -9 21 -12 10 -15 10 -15
-3z"/>
<path d="M5213 4213 c-24 -9 -13 -19 22 -19 27 0 32 3 23 13 -11 13 -24 15
-45 6z"/>
<path d="M5145 4200 c3 -5 10 -10 16 -10 5 0 9 5 9 10 0 6 -7 10 -16 10 -8 0
-12 -4 -9 -10z"/>
<path d="M5893 4165 c-3 -9 -3 -18 -1 -21 3 -3 8 4 11 16 6 23 -1 27 -10 5z"/>
<path d="M4946 4132 c-6 -10 37 -34 84 -47 26 -6 62 -21 92 -36 9 -5 19 -5 22
0 3 4 -10 14 -29 21 -21 8 -35 21 -35 31 0 20 -14 26 -79 35 -29 4 -51 2 -55
-4z"/>
<path d="M5056 4043 c-3 -3 -3 -10 0 -14 7 -12 44 -12 44 0 0 10 -36 21 -44
14z"/>
<path d="M5168 4013 c7 -3 16 -2 19 1 4 3 -2 6 -13 5 -11 0 -14 -3 -6 -6z"/>
<path d="M5395 3921 c-7 -12 12 -24 25 -16 11 7 4 25 -10 25 -5 0 -11 -4 -15
-9z"/>
<path d="M5263 3828 c-25 -12 -32 -58 -9 -58 20 0 35 22 33 48 -1 12 -1 22 -2
21 0 0 -10 -5 -22 -11z"/>
<path d="M5316 3815 c-8 -31 -1 -45 24 -45 19 0 30 19 30 51 0 31 -46 25 -54
-6z"/>
<path d="M5398 3833 c-2 -5 -3 -19 -3 -33 0 -40 37 -34 46 8 6 29 4 32 -17 32
-12 0 -24 -3 -26 -7z"/>
<path d="M4968 3703 c7 -3 16 -2 19 1 4 3 -2 6 -13 5 -11 0 -14 -3 -6 -6z"/>
<path d="M4630 3655 c-127 -30 -390 -131 -390 -150 0 -5 12 -21 25 -34 14 -13
25 -27 25 -33 0 -5 5 -6 11 -2 6 3 21 1 33 -5 18 -10 38 -6 119 24 94 33 271
106 310 127 18 9 18 11 2 28 -11 12 -14 26 -10 39 6 19 2 21 -32 20 -21 0 -63
-7 -93 -14z"/>
<path d="M5320 3650 c0 -5 -11 -10 -23 -10 -13 0 -32 -9 -42 -20 -17 -19 -16
-19 21 -13 38 6 92 33 66 33 -7 0 -10 5 -7 10 3 6 1 10 -4 10 -6 0 -11 -4 -11
-10z"/>
<path d="M5415 3630 c-3 -5 -1 -10 4 -10 6 0 11 5 11 10 0 6 -2 10 -4 10 -3 0
-8 -4 -11 -10z"/>
<path d="M4715 3531 c-285 -103 -415 -156 -415 -169 1 -19 28 -41 46 -36 15 4
30 -6 56 -39 39 -47 38 -63 -5 -75 -19 -5 -24 -11 -18 -20 7 -12 14 -11 39 2
17 9 39 16 49 16 10 0 34 10 53 21 l35 21 -37 -35 c-21 -19 -38 -42 -38 -50 0
-17 41 -86 51 -87 3 0 23 11 43 25 34 23 36 23 25 4 -6 -11 -8 -31 -4 -42 8
-28 78 -88 91 -79 6 4 44 52 86 107 82 110 163 201 275 313 78 77 101 125 38
76 -19 -14 -41 -24 -50 -21 -8 4 -17 2 -20 -3 -3 -5 -25 -18 -48 -28 -35 -15
-156 -98 -177 -122 -3 -3 -16 -14 -30 -25 -20 -16 34 47 97 113 18 19 16 32
-4 26 -48 -16 -97 -43 -190 -106 -57 -38 -103 -66 -103 -64 0 3 29 26 63 53
85 64 153 121 194 161 28 27 32 36 23 53 -6 10 -8 24 -5 29 11 18 -39 10 -120
-19z"/>
<path d="M3940 3520 c-65 -14 -130 -18 -124 -8 4 6 -4 4 -17 -3 -13 -7 -31
-12 -40 -11 -14 2 -98 -24 -154 -48 -11 -5 -42 -8 -68 -8 -27 1 -53 -4 -60
-11 -6 -6 -28 -11 -49 -11 -24 0 -38 -5 -38 -12 0 -8 -5 -6 -11 4 -9 15 -14
14 -55 -13 -24 -17 -51 -28 -60 -25 -8 3 -17 -1 -20 -9 -4 -8 -16 -15 -29 -15
-12 0 -28 -7 -35 -15 -7 -8 -19 -15 -27 -15 -7 0 -16 -7 -20 -17 -5 -13 -8
-12 -15 8 -9 23 -10 23 -20 4 -6 -11 -12 -21 -13 -23 -2 -2 -15 -5 -31 -8 -16
-3 -34 -10 -40 -15 -8 -7 -13 -6 -16 2 -3 8 -17 5 -47 -10 -24 -13 -49 -20
-56 -17 -7 2 -21 -2 -32 -9 -10 -8 -33 -15 -50 -15 -18 0 -33 -4 -33 -10 0 -5
-18 -10 -40 -10 -23 0 -40 -5 -40 -11 0 -6 -6 -9 -14 -6 -8 3 -17 1 -20 -6 -3
-8 -5 -7 -5 2 -1 10 -8 8 -26 -9 -21 -20 -25 -21 -25 -6 0 14 -5 12 -25 -9
-18 -17 -37 -25 -59 -25 -19 0 -36 -6 -39 -13 -3 -8 -19 -14 -35 -15 -17 0
-39 -5 -50 -11 -11 -6 -22 -8 -25 -4 -4 3 -9 -2 -13 -11 -3 -9 -17 -16 -30
-16 -13 0 -24 -5 -24 -11 0 -5 -4 -8 -9 -5 -5 3 -14 0 -19 -7 -6 -7 -26 -12
-44 -12 -33 1 -58 -14 -58 -35 0 -6 -4 -8 -10 -5 -5 3 -10 2 -10 -4 0 -6 -7
-8 -15 -5 -8 4 -15 1 -15 -5 0 -6 -8 -11 -19 -11 -20 0 -93 -28 -101 -39 -3
-3 -9 -6 -15 -6 -5 0 -41 -16 -80 -34 -38 -18 -74 -34 -80 -35 -5 -1 -16 -5
-22 -9 -7 -5 -35 -15 -63 -23 -27 -8 -50 -19 -50 -24 0 -6 -7 -10 -15 -10 -8
0 -15 -4 -15 -10 0 -5 -7 -10 -16 -10 -8 0 -12 -5 -9 -10 9 -15 -32 -99 -51
-107 -9 -3 -24 -6 -34 -7 -9 -1 -33 -21 -51 -46 -59 -78 -243 -153 -269 -109
-8 12 10 59 23 59 4 0 7 9 7 20 0 19 -2 19 -23 7 -12 -8 -67 -40 -122 -73 -55
-32 -129 -82 -165 -110 -36 -28 -83 -61 -105 -73 -22 -12 -47 -25 -55 -30 -29
-17 -65 -29 -83 -29 -16 1 -21 11 -29 60 -3 16 -6 16 -28 5 -14 -7 -44 -13
-67 -12 -26 0 -43 -5 -43 -11 0 -7 -12 -15 -27 -19 -16 -3 -35 -13 -44 -21 -9
-8 -26 -16 -38 -17 -11 -1 -21 -4 -21 -7 0 -3 -17 -12 -38 -19 -20 -8 -52 -24
-71 -37 -19 -13 -38 -21 -43 -18 -4 3 -8 0 -8 -5 0 -6 -4 -11 -9 -11 -5 0 -43
-16 -84 -35 -41 -19 -80 -35 -86 -35 -6 0 -11 -4 -11 -9 0 -5 -16 -15 -35 -21
l-35 -12 0 -1014 0 -1014 964 0 964 0 60 78 c33 43 68 84 77 92 10 8 14 22 11
39 -7 33 3 45 88 106 39 27 94 68 123 92 56 46 76 51 116 30 19 -10 23 -17 15
-25 -5 -5 -15 -21 -22 -33 -9 -20 -8 -27 12 -46 42 -42 28 -61 -108 -150 -69
-45 -126 -87 -128 -92 -9 -27 25 -12 132 60 116 78 120 80 165 74 25 -4 52 -8
59 -10 18 -6 15 -25 -5 -32 -10 -4 -30 -16 -45 -29 -15 -12 -80 -51 -145 -86
l-117 -63 48 -3 c44 -3 55 2 123 47 41 28 81 51 88 51 25 0 66 -41 60 -60 -9
-30 15 -34 43 -8 15 14 78 54 140 89 126 71 157 94 299 223 103 93 119 113 84
101 -31 -9 -46 3 -27 24 17 19 17 20 -53 114 -35 47 -41 51 -73 48 -21 -3 -22
3 -5 30 10 17 9 22 -9 37 -12 9 -25 27 -29 40 -7 26 -37 29 -56 6 -10 -13 -10
-17 2 -25 8 -5 24 -9 37 -9 34 0 26 -17 -18 -36 -27 -12 -43 -27 -50 -48 -6
-17 -36 -54 -67 -83 l-56 -53 27 -21 c36 -28 31 -60 -9 -71 -42 -11 -57 -4
-79 36 -18 34 -20 35 -80 34 -33 -1 -71 -8 -83 -16 -15 -9 -23 -10 -23 -3 0 6
7 11 16 11 8 0 12 5 9 10 -3 6 -1 10 4 10 6 0 11 10 11 23 1 25 22 57 38 57 5
0 8 8 5 18 -3 13 18 37 76 85 67 57 83 67 99 58 21 -11 47 10 71 56 9 18 17
21 42 16 29 -6 31 -5 20 15 -6 11 -11 47 -11 80 0 72 19 101 93 138 28 15 76
54 108 88 31 33 97 105 146 159 94 101 160 157 190 158 10 0 60 21 112 47 81
41 96 52 103 78 10 41 33 60 104 87 l59 23 1 65 c2 72 25 284 44 402 9 57 10
81 2 89 -15 15 4 50 26 47 9 -1 32 -1 50 0 26 1 32 5 32 23 0 12 5 36 12 54 9
25 8 39 -3 65 -17 44 -20 55 -20 106 0 43 -19 70 -40 57 -7 -4 -9 -3 -5 4 3 6
2 13 -4 17 -5 3 -10 1 -10 -5 0 -6 -8 -9 -18 -6 -39 13 -135 16 -147 6 -9 -8
-15 -8 -20 0 -3 6 -10 8 -14 6 -4 -3 -16 9 -26 25 -11 16 -28 29 -37 29 -10 0
-18 5 -18 11 0 7 -7 8 -17 4 -10 -4 -38 -13 -63 -21 -25 -7 -98 -29 -163 -48
-115 -35 -181 -43 -246 -30 -40 8 -57 36 -36 58 21 20 168 64 275 82 50 8 116
27 153 44 72 33 123 38 153 14 10 -8 12 -12 4 -8 -12 5 -12 4 -3 -6 9 -10 5
-18 -15 -36 -22 -19 -24 -23 -9 -24 9 0 17 5 17 10 0 6 8 10 18 10 20 0 92 36
107 53 6 7 19 18 30 25 11 6 40 26 65 42 25 16 48 31 52 32 3 2 4 15 1 29 -4
20 -9 25 -24 22 -10 -3 -19 -9 -19 -13 0 -7 -54 -22 -85 -25 -5 0 -14 -3 -20
-7 -20 -12 -85 -26 -89 -19 -3 4 4 20 15 37 10 16 19 35 19 42 0 23 26 41 102
73 40 17 76 37 80 43 5 8 8 7 8 -2 0 -8 6 -12 13 -9 6 2 11 10 9 16 -1 6 2 11
8 11 16 0 12 -15 -11 -44 -11 -14 -16 -26 -10 -26 6 0 7 -8 4 -17 -5 -15 -4
-16 8 -7 8 7 65 18 128 25 63 7 109 15 102 17 -16 5 18 31 42 32 9 0 17 5 17
10 0 6 14 19 32 30 23 14 36 16 50 9 16 -9 18 -5 18 46 0 59 -14 100 -31 90
-5 -4 -9 1 -9 9 0 9 -4 16 -9 16 -5 0 -7 9 -4 20 8 31 -6 24 -77 -35 -64 -53
-98 -69 -44 -20 l29 25 -30 -6 c-27 -6 -24 -1 38 60 63 62 79 94 38 81 -10 -3
-31 1 -47 10 -17 8 -40 13 -52 10 -12 -2 -25 1 -28 7 -4 6 -3 8 3 5 6 -4 13 0
17 8 3 8 3 15 0 15 -11 0 -119 -58 -252 -137 -137 -81 -168 -96 -184 -86 -10
5 56 62 122 104 30 20 92 59 138 89 45 29 82 58 82 64 0 7 19 21 42 32 33 16
38 22 24 27 -10 4 -15 3 -11 -3 8 -12 -27 -13 -40 -2 -6 5 -26 6 -45 2z m45
-10 c3 -5 -1 -10 -10 -10 -9 0 -13 5 -10 10 3 6 8 10 10 10 2 0 7 -4 10 -10z
m59 -354 c-10 -8 -21 -12 -24 -9 -3 2 4 11 14 19 11 7 22 12 25 9 2 -3 -4 -12
-15 -19z m-1028 -10 c1 -10 7 -22 13 -25 5 -3 12 -18 16 -32 5 -21 2 -27 -20
-37 -14 -7 -23 -17 -20 -22 3 -6 0 -10 -7 -10 -14 0 -68 -49 -110 -98 -13 -16
-49 -43 -79 -60 -56 -31 -226 -121 -289 -153 -87 -45 -245 -63 -284 -34 -37
28 9 101 87 137 21 10 56 38 79 62 22 25 54 48 69 51 15 4 45 22 65 41 25 22
48 34 67 34 33 0 54 10 122 60 30 22 76 44 115 54 36 10 81 26 100 36 42 24
72 22 76 -4z m994 -16 c0 -5 -10 -10 -22 -9 -22 0 -22 1 -3 9 11 5 21 9 23 9
1 1 2 -3 2 -9z m-1490 -581 c0 -26 -36 -67 -81 -93 -27 -15 -54 -37 -60 -49
-20 -38 -71 -76 -119 -87 -26 -6 -52 -10 -59 -8 -12 3 -69 -84 -70 -108 -1
-10 28 -17 129 -30 22 -3 50 -28 50 -45 0 -19 -45 -59 -98 -87 -41 -22 -63
-41 -72 -62 -18 -44 -152 -131 -227 -148 -31 -7 -47 -5 -72 8 -27 13 -44 15
-89 8 -77 -12 -86 -7 -79 44 7 54 37 77 99 78 34 0 54 6 75 24 28 23 101 71
138 91 13 8 19 19 17 36 -2 13 -4 50 -5 81 -2 51 1 60 28 88 37 39 60 52 99
55 17 2 37 3 43 4 7 1 24 19 37 40 35 55 83 89 134 94 30 2 52 12 75 34 17 17
39 33 47 36 26 10 60 7 60 -4z m-779 -249 c28 -15 24 -62 -7 -100 -33 -38
-193 -121 -230 -118 -14 2 -37 12 -50 25 -21 19 -22 25 -11 45 21 40 49 62
147 111 99 49 119 54 151 37z m-1051 -245 c5 -3 8 -11 5 -16 -4 -5 2 -9 12 -9
14 -1 13 -4 -7 -15 -14 -8 -21 -14 -16 -15 5 0 0 -8 -11 -18 -11 -9 -22 -26
-24 -37 -2 -11 -14 -24 -27 -30 -12 -5 -22 -13 -22 -17 0 -5 -5 -8 -10 -8 -6
0 -24 -10 -40 -21 -28 -21 -54 -25 -204 -32 -31 -1 -48 -10 -80 -42 -23 -22
-61 -50 -85 -62 -40 -20 -46 -20 -56 -6 -10 13 -6 27 17 70 16 30 26 62 23 72
-6 21 29 71 51 71 8 0 14 4 14 9 0 16 71 43 101 39 15 -3 26 -1 24 3 -7 10 25
20 37 12 6 -3 8 -1 4 5 -9 16 21 18 88 7 45 -7 61 -6 64 3 2 7 12 12 22 12 11
0 23 6 27 14 14 22 64 29 93 11z m111 -37 c11 -16 -3 -58 -22 -68 -19 -11 -35
2 -25 19 4 5 1 11 -5 13 -7 2 -7 11 1 30 12 26 36 28 51 6z m1191 -310 c-15
-15 -26 -4 -18 18 5 13 9 15 18 6 9 -9 9 -15 0 -24z m-578 -6 l40 -7 -40 -17
c-21 -8 -59 -22 -84 -29 -25 -7 -54 -17 -65 -23 -11 -6 -22 -11 -25 -12 -9 -2
-44 -15 -60 -22 -29 -14 -73 -8 -76 10 -3 24 37 48 131 80 83 28 114 32 179
20z m71 -12 c3 -5 2 -10 -4 -10 -5 0 -13 5 -16 10 -3 6 -2 10 4 10 5 0 13 -4
16 -10z m1518 -1136 c10 -10 -12 -44 -28 -44 -15 0 -21 31 -8 43 8 9 28 9 36
1z m-538 -54 c3 -5 -1 -10 -9 -10 -9 0 -16 5 -16 10 0 6 4 10 9 10 6 0 13 -4
16 -10z m578 -55 c1 -5 -6 -11 -15 -13 -11 -2 -18 3 -18 13 0 17 30 18 33 0z
m-213 -49 c0 -3 -4 -8 -10 -11 -5 -3 -10 -1 -10 4 0 6 5 11 10 11 6 0 10 -2
10 -4z m-335 -25 c7 -12 -12 -24 -25 -16 -11 7 -4 25 10 25 5 0 11 -4 15 -9z
m462 -27 c5 -17 -15 -37 -31 -31 -14 5 -15 11 -6 27 11 21 31 23 37 4z"/>
<path d="M465 2000 c-3 -5 -1 -10 4 -10 6 0 11 5 11 10 0 6 -2 10 -4 10 -3 0
-8 -4 -11 -10z"/>
<path d="M5717 3502 c-10 -10 -17 -25 -17 -32 0 -7 11 -1 25 14 14 15 25 29
25 32 0 10 -18 3 -33 -14z"/>
<path d="M5357 3476 c-4 -10 -1 -13 9 -9 7 3 14 9 14 14 0 14 -17 10 -23 -5z"/>
<path d="M5741 3466 c-16 -19 -11 -29 8 -17 7 5 12 14 9 21 -3 9 -8 7 -17 -4z"/>
<path d="M5080 3388 c-84 -63 -114 -92 -218 -208 -89 -99 -172 -217 -172 -244
0 -11 7 -15 23 -12 12 3 27 5 34 5 6 1 37 36 69 79 33 42 96 122 142 176 105
127 196 245 191 250 -2 2 -33 -19 -69 -46z"/>
<path d="M5712 3395 c0 -16 2 -22 5 -12 2 9 2 23 0 30 -3 6 -5 -1 -5 -18z"/>
<path d="M5130 3314 c-19 -25 -59 -68 -89 -97 l-54 -52 44 55 c56 70 92 120
85 120 -5 0 -161 -183 -263 -309 -63 -77 -111 -167 -75 -140 9 8 27 25 39 39
25 28 28 21 14 -27 -15 -51 7 -37 59 37 76 108 159 218 167 222 13 5 153 167
153 176 -1 4 -32 -27 -70 -68 -38 -41 -74 -74 -81 -72 -7 2 -9 -4 -6 -12 4 -9
2 -15 -3 -13 -5 1 -39 -29 -76 -68 -49 -52 -57 -58 -33 -25 19 25 59 70 89
100 58 57 146 168 139 174 -2 2 -20 -16 -39 -40z"/>
<path d="M6244 3205 c36 -19 42 -19 26 0 -7 8 -22 15 -34 15 -18 0 -17 -2 8
-15z"/>
<path d="M4634 2815 c24 -18 39 -20 34 -2 -3 6 -15 13 -29 15 -23 2 -23 2 -5
-13z"/>
<path d="M4530 2677 c0 -21 50 -88 61 -81 6 4 4 14 -6 27 -8 12 -20 32 -25 45
-10 24 -30 30 -30 9z"/>
<path d="M4199 2645 c-5 -4 -138 -14 -201 -15 -12 0 -18 -8 -18 -21 0 -33 40
-223 49 -232 5 -5 34 -11 66 -13 60 -4 78 -10 70 -24 -3 -4 2 -13 10 -20 13
-11 15 -5 13 46 -3 51 0 60 18 69 l22 11 -24 21 c-34 30 -30 54 17 96 47 43
51 80 9 85 -14 2 -28 0 -31 -3z"/>
<path d="M4510 2560 c0 -5 4 -10 9 -10 6 0 13 5 16 10 3 6 -1 10 -9 10 -9 0
-16 -4 -16 -10z"/>
<path d="M4283 2462 c-33 -12 -43 -22 -43 -38 0 -28 14 -32 78 -21 55 9 65 24
38 60 -15 20 -17 20 -73 -1z"/>
<path d="M4784 2188 c8 -53 12 -57 38 -30 l22 22 -24 25 c-33 35 -43 31 -36
-17z"/>
<path d="M4156 2192 c-4 -3 -55 -9 -114 -12 l-107 -5 2 -130 c3 -118 4 -130
20 -127 101 15 130 23 149 46 12 13 40 34 63 45 46 24 50 40 30 130 -10 46
-28 69 -43 53z"/>
<path d="M6655 2110 c3 -5 13 -10 21 -10 8 0 12 5 9 10 -3 6 -13 10 -21 10 -8
0 -12 -4 -9 -10z"/>
<path d="M4480 2100 c0 -5 5 -10 10 -10 6 0 10 5 10 10 0 6 -4 10 -10 10 -5 0
-10 -4 -10 -10z"/>
<path d="M4185 1690 c-8 -13 3 -68 16 -75 5 -4 9 12 9 34 0 40 -13 61 -25 41z"/>
<path d="M4055 1523 c-70 -11 -76 -65 -13 -132 41 -43 41 -43 69 -27 15 9 41
16 58 16 46 0 72 33 65 84 -9 65 -12 70 -29 56 -12 -10 -21 -10 -41 -1 -25 11
-52 12 -109 4z"/>
<path d="M3994 1075 c-16 -13 -17 -16 -4 -25 21 -14 37 -12 43 4 9 24 -17 38
-39 21z"/>
<path d="M4027 881 c3 -12 -1 -28 -8 -37 -11 -14 -11 -18 4 -29 18 -13 23 -45
7 -45 -5 0 -7 -21 -4 -52 3 -29 6 -102 7 -163 l2 -110 90 -5 90 -5 -1 -78 c0
-106 -7 -113 -108 -97 -139 23 -268 -5 -274 -60 -2 -14 9 -47 23 -73 29 -56
31 -70 10 -87 -8 -7 -15 -19 -15 -26 0 -11 25 -14 124 -14 109 0 129 3 161 21
20 12 35 18 34 13 -5 -31 3 -34 102 -34 l100 0 11 32 11 31 28 -31 29 -32 478
0 478 0 105 53 105 54 -32 44 c-18 24 -41 53 -52 64 -11 11 -23 31 -27 45 -5
18 4 10 32 -25 58 -74 109 -115 141 -115 25 1 20 8 -60 85 -58 56 -98 88 -118
92 -51 10 -75 71 -34 87 17 6 19 36 3 36 -7 0 -17 -7 -23 -16 -15 -20 -67 -9
-73 17 -6 22 -62 25 -314 21 -169 -3 -177 -4 -172 -23 7 -25 -13 -25 -26 0 -7
12 -25 21 -53 24 -24 3 -65 10 -93 15 -27 5 -72 6 -100 3 -45 -7 -57 -14 -112
-72 -68 -69 -83 -69 -83 -3 0 35 -13 44 -65 44 -43 0 -86 16 -105 40 -8 10
-35 22 -60 27 l-45 9 -2 64 c-5 219 -8 270 -15 270 -4 0 -8 -7 -8 -16 0 -8 -5
-24 -11 -36 -10 -19 -11 -19 -24 -1 -7 10 -16 32 -19 49 -4 18 -16 40 -26 49
-18 16 -18 16 -13 -4z m679 -439 c14 -10 44 -54 44 -66 0 -5 -10 0 -22 11 -13
11 -33 26 -46 32 -12 7 -20 16 -17 22 7 11 26 12 41 1z m615 -41 c-7 -5 -17
-15 -22 -22 -6 -10 -9 -8 -9 9 0 16 6 22 23 22 16 0 18 -3 8 -9z m-293 -18
c-10 -2 -26 -2 -35 0 -10 3 -2 5 17 5 19 0 27 -2 18 -5z m120 0 c-10 -2 -28
-2 -40 0 -13 2 -5 4 17 4 22 1 32 -1 23 -4z m112 -3 c0 -16 -47 -16 -64 1 -6
5 4 9 27 9 20 0 37 -4 37 -10z"/>
<path d="M10056 774 c-18 -17 -20 -24 -8 -24 4 0 13 9 20 20 15 24 9 26 -12 4z"/>
<path d="M9660 711 c0 -12 5 -21 10 -21 6 0 10 6 10 14 0 8 -4 18 -10 21 -5 3
-10 -3 -10 -14z"/>
<path d="M2770 699 c-9 -16 -18 -19 -39 -14 -24 5 -29 1 -44 -30 -9 -19 -14
-35 -12 -35 3 0 28 11 55 25 27 14 58 25 69 25 17 0 31 18 31 41 0 18 -49 9
-60 -12z"/>
<path d="M5550 385 c0 -20 4 -26 18 -23 9 2 17 12 17 23 0 11 -8 21 -17 23
-14 3 -18 -3 -18 -23z"/>
<path d="M5808 393 c7 -3 16 -2 19 1 4 3 -2 6 -13 5 -11 0 -14 -3 -6 -6z"/>
<path d="M5875 389 c4 -5 16 -9 27 -9 26 0 19 9 -11 15 -12 2 -19 0 -16 -6z"/>
<path d="M2270 289 c-78 -53 -136 -99 -125 -99 21 0 215 131 215 145 0 11 -19
2 -90 -46z"/>
<path d="M9020 320 c-8 -5 -12 -12 -9 -15 4 -3 12 1 19 10 14 17 11 19 -10 5z"/>
<path d="M6549 279 c16 -6 28 -6 35 1 7 7 -1 10 -24 9 -33 0 -34 -1 -11 -10z"/>
<path d="M6656 208 c-2 -7 -8 -41 -13 -75 -7 -48 -6 -64 4 -67 15 -6 20 10 28
92 5 43 4 62 -4 62 -7 0 -13 -6 -15 -12z"/>
<path d="M6530 100 c-27 -27 -17 -51 15 -36 26 12 39 32 29 47 -8 14 -22 11
-44 -11z"/>
<path d="M5670 86 c-30 -7 -86 -29 -125 -49 l-70 -36 213 -1 c126 0 211 4 208
9 -4 5 -4 16 0 24 4 11 20 14 73 10 46 -3 71 -1 76 7 4 6 5 13 4 15 -2 2 -67
8 -144 14 -77 6 -149 13 -160 15 -11 3 -45 -1 -75 -8z m190 -41 c0 -16 -62
-21 -109 -8 -23 6 -23 7 -5 14 10 4 40 8 67 8 35 1 47 -3 47 -14z"/>
<path d="M7640 56 c0 -20 -1 -39 -2 -43 -2 -5 10 -9 25 -11 27 -3 28 -2 25 40
-2 36 -7 44 -25 46 -20 3 -23 -1 -23 -32z"/>
<path d="M3600 46 c0 -28 12 -46 31 -46 26 0 24 12 -6 38 -18 16 -25 18 -25 8z"/>
<path d="M3746 37 c-5 -15 -6 -31 -2 -34 11 -11 18 5 14 34 l-4 28 -8 -28z"/>
<path d="M6080 36 c0 -23 72 -30 109 -11 17 8 31 18 31 20 0 3 -31 5 -70 5
-54 0 -70 -3 -70 -14z"/>
<path d="M3318 3 c7 -3 16 -2 19 1 4 3 -2 6 -13 5 -11 0 -14 -3 -6 -6z"/>
</g>
</svg>
